<?xml version="1.0" encoding="UTF-8"?>
<svg width="100pt" height="100pt" version="1.1" viewBox="0 0 100 100" xmlns="http://www.w3.org/2000/svg" fill="currentColor">
 <g>
  <path d="m93.062 88.641-11.266-11.266c4.0156-6.0625 3.3594-14.328-1.9844-19.672-6.1094-6.1094-16-6.1094-22.094 0s-6.1094 16 0 22.094c5.3438 5.3438 13.594 6 19.672 1.9844l11.266 11.266c1.2188 1.2188 3.2031 1.2188 4.4219 0s1.2188-3.2031 0-4.4219zm-33.141-11.047c-4.875-4.875-4.875-12.797 0-17.672 2.3594-2.3594 5.5-3.6562 8.8438-3.6562s6.4844 1.2969 8.8438 3.6562c4.875 4.875 4.875 12.797 0 17.672-2.3594 2.3594-5.5 3.6562-8.8438 3.6562s-6.4844-1.2969-8.8438-3.6562z"/>
  <path d="m34.375 35.938c0 4.168-6.25 4.168-6.25 0s6.25-4.168 6.25 0"/>
  <path d="m46.875 35.938c0 4.168-6.25 4.168-6.25 0s6.25-4.168 6.25 0"/>
  <path d="m50 68.75c0-5.0156 1.9531-9.7188 5.4844-13.266s8.25-5.4844 13.266-5.4844v-37.5c0-3.4531-2.7969-6.25-6.25-6.25h-50c-3.4531 0-6.25 2.7969-6.25 6.25v75c0 3.4531 2.7969 6.25 6.25 6.25h50c3.4531 0 6.25-2.7969 6.25-6.25-5.0156 0-9.7188-1.9531-13.266-5.4844s-5.4844-8.25-5.4844-13.266zm-34.375-37.5c0-0.85938 0.70312-1.5625 1.5625-1.5625h4.6875v-3.125c0-0.85938 0.70312-1.5625 1.5625-1.5625h12.5v-5.125c-0.92188-0.54688-1.5625-1.5312-1.5625-2.6875 0-1.7188 1.4062-3.125 3.125-3.125s3.125 1.4062 3.125 3.125c0 1.1562-0.64062 2.1406-1.5625 2.6875v5.125h12.5c0.85938 0 1.5625 0.70312 1.5625 1.5625v3.125h4.6875c0.85938 0 1.5625 0.70312 1.5625 1.5625v7.8125c0 0.85938-0.70312 1.5625-1.5625 1.5625h-4.6875v4.6875c0 0.85938-0.70312 1.5625-1.5625 1.5625h-28.125c-0.85938 0-1.5625-0.70312-1.5625-1.5625v-4.6875h-4.6875c-0.85938 0-1.5625-0.70312-1.5625-1.5625zm-3.125 23.438h35.938c0.85938 0 1.5625 0.70312 1.5625 1.5625s-0.70312 1.5625-1.5625 1.5625h-35.938c-0.85938 0-1.5625-0.70312-1.5625-1.5625s0.70312-1.5625 1.5625-1.5625zm0 9.375h31.25c0.85938 0 1.5625 0.70312 1.5625 1.5625s-0.70312 1.5625-1.5625 1.5625h-31.25c-0.85938 0-1.5625-0.70312-1.5625-1.5625s0.70312-1.5625 1.5625-1.5625zm0 9.375h32.812c0.85938 0 1.5625 0.70312 1.5625 1.5625s-0.70312 1.5625-1.5625 1.5625h-32.812c-0.85938 0-1.5625-0.70312-1.5625-1.5625s0.70312-1.5625 1.5625-1.5625zm39.062 12.5h-39.062c-0.85938 0-1.5625-0.70312-1.5625-1.5625s0.70312-1.5625 1.5625-1.5625h39.062c0.85938 0 1.5625 0.70312 1.5625 1.5625s-0.70312 1.5625-1.5625 1.5625z"/>
 </g>
</svg>
