<svg width="20" height="14" viewBox="0 0 20 14" xmlns="http://www.w3.org/2000/svg">
<path d="M18.5942 7.7002L19.17 7.39219L19.1031 6.76949L19.17 6.15347L18.4871 5.95929L13.1104 0.569182L12.2868 4.52393e-05L11.1619 0.267873L10.8606 1.39276L11.4029 2.27661L14.6102 5.6245L7.97468 5.48389L1.51994 5.23615L0.522271 5.7785L-2.95316e-07 6.77618L0.374964 7.92115L1.51994 8.19568L7.97468 7.92115L14.3491 8.20908L11.1351 11.0012L11.1351 11.6775L10.7467 12.1529L10.9342 12.7153L11.3159 13.1305L11.7243 13.5322L12.2935 13.405L12.7488 13.251L13.4451 13.2979L18.6009 7.6935L18.5942 7.7002Z" fill="currentColor"/>
</svg>
