<svg width="10" height="16" viewBox="0 0 10 16" fill="none" xmlns="http://www.w3.org/2000/svg">
<path d="M8.64042 1.36736L8.66741 1.39925L8.69932 1.42622L9.29837 1.93259L9.0499 2.23129L8.37054 2.94039L8.35829 2.95318L8.34698 2.9668L7.74472 3.6918L6.97822 4.21906L6.14655 4.77349L6.13156 4.78348L6.11733 4.79453L5.32764 5.40743L5.28337 5.4418L5.2478 5.48511L4.60541 6.26737L4.60503 6.26783L3.98288 7.02731L3.34136 7.69903L3.03839 8.01626L3.3135 8.35793L3.91088 9.09987L3.93025 9.12393L3.95244 9.14542L4.67257 9.84301L4.70687 9.87623L4.74684 9.90237L5.57616 10.4446L6.28259 11.0192L6.8477 11.7655L6.86736 11.7915L6.89023 11.8147L7.57471 12.5091L8.21901 13.2512L8.26134 13.2999L8.31467 13.3363L9.08692 13.8635L9.32539 14.1757L8.75689 14.7646L8.11468 15.3392L7.7825 15.0619L7.19155 14.3754L7.19048 14.3742L6.56855 13.6564L6.561 13.6477L6.55307 13.6394L5.88613 12.9378L5.84762 12.8973L5.80112 12.8663L5.06164 12.3732L4.56466 11.6295L4.52132 11.5646L4.46027 11.516L3.69513 10.9072L3.6682 10.8857L3.63859 10.8682L2.84078 10.3957L2.19325 9.75378L2.18149 9.74212L2.16897 9.73126L1.48435 9.13707L0.926506 8.43081L0.610748 8.0191L0.865125 7.62362L1.5048 6.99323L1.52527 6.97306L1.5433 6.95068L2.08573 6.27699L2.85372 5.81039L2.88254 5.79288L2.90875 5.77166L3.6657 5.15876L3.69948 5.13141L3.72803 5.09864L4.34209 4.39392L5.07634 3.82729L5.1388 3.77909L5.18338 3.714L5.68175 2.98639L6.42899 2.48331L6.47581 2.45179L6.51443 2.41062L7.165 1.71708L7.19039 1.69L7.21151 1.65948L7.71616 0.930073L8.05802 0.679151L8.64042 1.36736Z" fill="currentColor" stroke="currentColor"/>
</svg>
