<svg width="16" height="17" viewBox="0 0 16 17" fill="none" xmlns="http://www.w3.org/2000/svg">
<rect x="-128.5" y="-9.5" width="162" height="37" rx="18.5" fill="none" stroke="none"/>
<mask id="path-3-outside-1_0_1" maskUnits="userSpaceOnUse" x="0" y="-0.165039" width="16" height="17" fill="currentColor">
<rect fill="white" y="-0.165039" width="16" height="17"/>
<path d="M7.26074 6.1248C7.17485 4.8317 7.09305 3.53859 7.00307 2.24118C6.97853 1.89204 6.91309 1.5429 6.89673 1.18946C6.88037 0.904972 7.09305 0.779972 7.34663 0.857559C7.67382 0.961007 8.01329 1.02566 8.3364 1.14204C8.4182 1.17221 8.49591 1.33601 8.5 1.43946C8.51636 2.24549 8.50818 3.05583 8.51636 3.86618C8.52045 4.29721 8.52863 4.73256 8.56135 5.16359C8.5818 5.42221 8.5409 5.65928 8.74949 5.93514C8.9499 6.20239 8.90491 6.70239 8.90082 7.09894C8.90082 7.40066 8.95399 7.48256 9.24847 7.43946C10.6922 7.23687 12.136 7.05583 13.5798 6.87049C14.0092 6.81446 14.5 7.14635 14.6922 7.59894C14.7413 7.71532 14.8149 7.82308 14.8926 7.9179C15.1135 8.18083 14.9663 8.65497 14.6309 8.73687C14.6145 8.73687 14.59 8.70239 14.5695 8.68514C14.4714 8.59894 14.3691 8.43514 14.2791 8.44377C13.3057 8.5429 12.3405 8.68083 11.3671 8.77997C10.6063 8.85756 9.84151 8.89635 9.07669 8.96101C9.0317 8.96101 8.96217 9.05152 8.96217 9.10756C8.94581 9.38773 8.92945 9.67221 8.9499 9.94808C8.96217 10.0989 9.1135 10.2498 9.09305 10.3834C9.05215 10.6334 8.90491 10.8576 8.84765 11.1076C8.78221 11.4093 8.76585 11.7196 8.72904 12.03C8.72904 12.0601 8.7454 12.0946 8.74949 12.1248C8.77403 12.0989 8.81493 12.0731 8.81902 12.0429C8.83947 11.9136 8.85174 11.7843 8.8681 11.655C8.8681 11.6248 8.8681 11.5946 8.88446 11.5688C8.88855 11.5601 8.93354 11.5558 8.93763 11.5645C8.95399 11.5946 8.96626 11.6291 8.96626 11.6593C8.93763 12.0041 8.90491 12.3489 8.88037 12.6981C8.85174 13.0645 8.82311 13.4351 8.81902 13.8015C8.81902 13.8791 8.98671 13.9739 8.97444 14.0386C8.88446 14.5214 8.7863 15.0041 8.64724 15.4739C8.61452 15.5817 8.41002 15.6765 8.27505 15.6938C7.78016 15.7627 7.2771 15.8662 6.7863 15.8317C6.02147 15.7757 5.8865 15.4481 6.22597 14.711C6.30777 14.53 6.4182 14.3532 6.45501 14.1593C6.67996 12.9739 6.90082 11.7886 7.09305 10.5946C7.17076 10.1032 7.17076 9.59894 7.1953 9.10325C7.1953 9.06014 7.11759 8.97394 7.0726 8.96963C5.47751 8.86187 3.89468 8.96963 2.32004 9.25411C2.10327 9.2929 1.96421 9.34032 2.13599 9.59894C2.16053 9.63773 2.15235 9.70239 2.16053 9.75842C2.11554 9.74549 2.06237 9.74118 2.02147 9.71963C1.80061 9.60325 1.57976 9.48687 1.3589 9.36618C1.17076 9.26273 0.929448 8.62911 1.01943 8.42652C1.03988 8.3748 1.14213 8.35325 1.20757 8.33601C1.71881 8.22394 2.23006 8.11187 2.7454 8.01273C2.99489 7.96532 3.24438 7.93514 3.49796 7.91359C4.26278 7.84032 5.02761 7.77566 5.79652 7.71101C6.20143 7.67652 6.60634 7.65928 7.01125 7.60325C7.09305 7.59032 7.21984 7.4567 7.22393 7.3748C7.24438 6.96101 7.23211 6.54721 7.23211 6.12911C7.24438 6.12911 7.25665 6.12911 7.26892 6.12911L7.26074 6.1248Z"/>
</mask>
<path d="M7.26074 6.1248C7.17485 4.8317 7.09305 3.53859 7.00307 2.24118C6.97853 1.89204 6.91309 1.5429 6.89673 1.18946C6.88037 0.904972 7.09305 0.779972 7.34663 0.857559C7.67382 0.961007 8.01329 1.02566 8.3364 1.14204C8.4182 1.17221 8.49591 1.33601 8.5 1.43946C8.51636 2.24549 8.50818 3.05583 8.51636 3.86618C8.52045 4.29721 8.52863 4.73256 8.56135 5.16359C8.5818 5.42221 8.5409 5.65928 8.74949 5.93514C8.9499 6.20239 8.90491 6.70239 8.90082 7.09894C8.90082 7.40066 8.95399 7.48256 9.24847 7.43946C10.6922 7.23687 12.136 7.05583 13.5798 6.87049C14.0092 6.81446 14.5 7.14635 14.6922 7.59894C14.7413 7.71532 14.8149 7.82308 14.8926 7.9179C15.1135 8.18083 14.9663 8.65497 14.6309 8.73687C14.6145 8.73687 14.59 8.70239 14.5695 8.68514C14.4714 8.59894 14.3691 8.43514 14.2791 8.44377C13.3057 8.5429 12.3405 8.68083 11.3671 8.77997C10.6063 8.85756 9.84151 8.89635 9.07669 8.96101C9.0317 8.96101 8.96217 9.05152 8.96217 9.10756C8.94581 9.38773 8.92945 9.67221 8.9499 9.94808C8.96217 10.0989 9.1135 10.2498 9.09305 10.3834C9.05215 10.6334 8.90491 10.8576 8.84765 11.1076C8.78221 11.4093 8.76585 11.7196 8.72904 12.03C8.72904 12.0601 8.7454 12.0946 8.74949 12.1248C8.77403 12.0989 8.81493 12.0731 8.81902 12.0429C8.83947 11.9136 8.85174 11.7843 8.8681 11.655C8.8681 11.6248 8.8681 11.5946 8.88446 11.5688C8.88855 11.5601 8.93354 11.5558 8.93763 11.5645C8.95399 11.5946 8.96626 11.6291 8.96626 11.6593C8.93763 12.0041 8.90491 12.3489 8.88037 12.6981C8.85174 13.0645 8.82311 13.4351 8.81902 13.8015C8.81902 13.8791 8.98671 13.9739 8.97444 14.0386C8.88446 14.5214 8.7863 15.0041 8.64724 15.4739C8.61452 15.5817 8.41002 15.6765 8.27505 15.6938C7.78016 15.7627 7.2771 15.8662 6.7863 15.8317C6.02147 15.7757 5.8865 15.4481 6.22597 14.711C6.30777 14.53 6.4182 14.3532 6.45501 14.1593C6.67996 12.9739 6.90082 11.7886 7.09305 10.5946C7.17076 10.1032 7.17076 9.59894 7.1953 9.10325C7.1953 9.06014 7.11759 8.97394 7.0726 8.96963C5.47751 8.86187 3.89468 8.96963 2.32004 9.25411C2.10327 9.2929 1.96421 9.34032 2.13599 9.59894C2.16053 9.63773 2.15235 9.70239 2.16053 9.75842C2.11554 9.74549 2.06237 9.74118 2.02147 9.71963C1.80061 9.60325 1.57976 9.48687 1.3589 9.36618C1.17076 9.26273 0.929448 8.62911 1.01943 8.42652C1.03988 8.3748 1.14213 8.35325 1.20757 8.33601C1.71881 8.22394 2.23006 8.11187 2.7454 8.01273C2.99489 7.96532 3.24438 7.93514 3.49796 7.91359C4.26278 7.84032 5.02761 7.77566 5.79652 7.71101C6.20143 7.67652 6.60634 7.65928 7.01125 7.60325C7.09305 7.59032 7.21984 7.4567 7.22393 7.3748C7.24438 6.96101 7.23211 6.54721 7.23211 6.12911C7.24438 6.12911 7.25665 6.12911 7.26892 6.12911L7.26074 6.1248Z" fill="currentColor"/>
<path d="M7.26074 6.1248C7.17485 4.8317 7.09305 3.53859 7.00307 2.24118C6.97853 1.89204 6.91309 1.5429 6.89673 1.18946C6.88037 0.904972 7.09305 0.779972 7.34663 0.857559C7.67382 0.961007 8.01329 1.02566 8.3364 1.14204C8.4182 1.17221 8.49591 1.33601 8.5 1.43946C8.51636 2.24549 8.50818 3.05583 8.51636 3.86618C8.52045 4.29721 8.52863 4.73256 8.56135 5.16359C8.5818 5.42221 8.5409 5.65928 8.74949 5.93514C8.9499 6.20239 8.90491 6.70239 8.90082 7.09894C8.90082 7.40066 8.95399 7.48256 9.24847 7.43946C10.6922 7.23687 12.136 7.05583 13.5798 6.87049C14.0092 6.81446 14.5 7.14635 14.6922 7.59894C14.7413 7.71532 14.8149 7.82308 14.8926 7.9179C15.1135 8.18083 14.9663 8.65497 14.6309 8.73687C14.6145 8.73687 14.59 8.70239 14.5695 8.68514C14.4714 8.59894 14.3691 8.43514 14.2791 8.44377C13.3057 8.5429 12.3405 8.68083 11.3671 8.77997C10.6063 8.85756 9.84151 8.89635 9.07669 8.96101C9.0317 8.96101 8.96217 9.05152 8.96217 9.10756C8.94581 9.38773 8.92945 9.67221 8.9499 9.94808C8.96217 10.0989 9.1135 10.2498 9.09305 10.3834C9.05215 10.6334 8.90491 10.8576 8.84765 11.1076C8.78221 11.4093 8.76585 11.7196 8.72904 12.03C8.72904 12.0601 8.7454 12.0946 8.74949 12.1248C8.77403 12.0989 8.81493 12.0731 8.81902 12.0429C8.83947 11.9136 8.85174 11.7843 8.8681 11.655C8.8681 11.6248 8.8681 11.5946 8.88446 11.5688C8.88855 11.5601 8.93354 11.5558 8.93763 11.5645C8.95399 11.5946 8.96626 11.6291 8.96626 11.6593C8.93763 12.0041 8.90491 12.3489 8.88037 12.6981C8.85174 13.0645 8.82311 13.4351 8.81902 13.8015C8.81902 13.8791 8.98671 13.9739 8.97444 14.0386C8.88446 14.5214 8.7863 15.0041 8.64724 15.4739C8.61452 15.5817 8.41002 15.6765 8.27505 15.6938C7.78016 15.7627 7.2771 15.8662 6.7863 15.8317C6.02147 15.7757 5.8865 15.4481 6.22597 14.711C6.30777 14.53 6.4182 14.3532 6.45501 14.1593C6.67996 12.9739 6.90082 11.7886 7.09305 10.5946C7.17076 10.1032 7.17076 9.59894 7.1953 9.10325C7.1953 9.06014 7.11759 8.97394 7.0726 8.96963C5.47751 8.86187 3.89468 8.96963 2.32004 9.25411C2.10327 9.2929 1.96421 9.34032 2.13599 9.59894C2.16053 9.63773 2.15235 9.70239 2.16053 9.75842C2.11554 9.74549 2.06237 9.74118 2.02147 9.71963C1.80061 9.60325 1.57976 9.48687 1.3589 9.36618C1.17076 9.26273 0.929448 8.62911 1.01943 8.42652C1.03988 8.3748 1.14213 8.35325 1.20757 8.33601C1.71881 8.22394 2.23006 8.11187 2.7454 8.01273C2.99489 7.96532 3.24438 7.93514 3.49796 7.91359C4.26278 7.84032 5.02761 7.77566 5.79652 7.71101C6.20143 7.67652 6.60634 7.65928 7.01125 7.60325C7.09305 7.59032 7.21984 7.4567 7.22393 7.3748C7.24438 6.96101 7.23211 6.54721 7.23211 6.12911C7.24438 6.12911 7.25665 6.12911 7.26892 6.12911L7.26074 6.1248Z" stroke="currentColor" stroke-width="0.4" mask="url(#path-3-outside-1_0_1)"/>
<rect x="-148.5" y="-319.5" width="202" height="425" rx="4.5" stroke="none" stroke-dasharray="10 5"/>
</svg>
