<svg width="14" height="15" viewBox="0 0 8 9" fill="none" xmlns="http://www.w3.org/2000/svg">
<mask id="path-1-outside-1_1_36797" maskUnits="userSpaceOnUse" x="-3.37808" y="-3.14235" width="14.8492" height="14.8493" fill="black">
<rect fill="white" x="-3.37808" y="-3.14235" width="14.8492" height="14.8493"/>
<path d="M2.9433 3.51618C2.3575 3.00326 1.77343 2.4886 1.18406 1.97558C1.02531 1.83766 0.849197 1.71712 0.6921 1.5739C0.564301 1.45998 0.601563 1.31652 0.742261 1.24177C0.925225 1.14673 1.09692 1.02999 1.28364 0.94218C1.33121 0.920251 1.43381 0.956831 1.47949 0.999046C1.82885 1.33456 2.16961 1.68233 2.51732 2.02315C2.70216 2.20455 2.89057 2.38604 3.08758 2.55528C3.20613 2.65648 3.28946 2.77458 3.49527 2.80317C3.69394 2.83158 3.88723 3.06313 4.05395 3.23336C4.18212 3.36155 4.2395 3.37376 4.34631 3.23035C4.87367 2.53097 5.41018 1.84074 5.94487 1.14868C6.10353 0.942437 6.45305 0.874961 6.72698 0.985595C6.79727 1.01419 6.87433 1.0287 6.94763 1.03598C7.15316 1.05387 7.29201 1.31787 7.18431 1.49514C7.17736 1.50208 7.15228 1.49786 7.13627 1.49922C7.05794 1.50429 6.94492 1.47813 6.91035 1.52002C6.53889 1.97565 6.18737 2.44429 5.81591 2.89992C5.52565 3.25604 5.21717 3.59743 4.91968 3.9498C4.90056 3.96891 4.90947 4.0369 4.93328 4.06071C5.04534 4.1867 5.15924 4.31452 5.28512 4.42304C5.35442 4.48192 5.4828 4.48174 5.53087 4.54719C5.6197 4.67079 5.65235 4.82857 5.73422 4.95911C5.83459 5.1151 5.95948 5.25391 6.07567 5.40141C6.08849 5.41423 6.11009 5.42193 6.12464 5.43301C6.12408 5.4116 6.13047 5.38323 6.1194 5.36868C6.07315 5.30505 6.02344 5.2449 5.97545 5.183C5.96264 5.17019 5.94982 5.15737 5.94578 5.13943C5.94386 5.13403 5.96114 5.11308 5.96654 5.11501C5.98631 5.12088 6.00617 5.13032 6.01899 5.14314C6.15331 5.30181 6.28589 5.46222 6.42378 5.62098C6.56725 5.78881 6.71256 5.95847 6.86646 6.11587C6.89942 6.14884 7.01095 6.11789 7.0332 6.15057C7.20005 6.39391 7.36342 6.64072 7.50392 6.89941C7.53579 6.9591 7.48919 7.08626 7.43917 7.15092C7.2582 7.39045 7.0884 7.64811 6.86523 7.84195C6.51647 8.14304 6.31996 8.06119 6.15109 7.60382C6.10894 7.49215 6.08078 7.37016 6.01403 7.27211C5.60607 6.67293 5.19637 6.07548 4.77084 5.48653C4.59512 5.24475 4.38089 5.03048 4.18075 4.80945C4.16243 4.79113 4.0928 4.78752 4.07185 4.8048C3.34836 5.43661 2.72163 6.15478 2.17345 6.94456C2.09783 7.05313 2.05889 7.13234 2.24174 7.16925C2.26864 7.17531 2.29263 7.20626 2.31991 7.22659C2.29531 7.24021 2.27088 7.26096 2.24435 7.26918C2.10108 7.31355 1.9578 7.35793 1.81269 7.40047C1.68881 7.43644 1.31712 7.26974 1.26929 7.14544C1.25601 7.11478 1.2903 7.06219 1.31078 7.02706C1.48039 6.76227 1.65 6.49747 1.82684 6.23644C1.9127 6.11031 2.00588 5.99151 2.10447 5.87463C2.3983 5.5186 2.69579 5.16623 2.99501 4.81212C3.1524 4.62546 3.31711 4.44613 3.46535 4.25032C3.49461 4.21008 3.49171 4.09944 3.45866 4.06291C3.29157 3.87841 3.11058 3.70781 2.93297 3.53017C2.93818 3.52496 2.94339 3.51975 2.94861 3.51453L2.9433 3.51618Z"/>
</mask>
<path d="M2.9433 3.51618C2.3575 3.00326 1.77343 2.4886 1.18406 1.97558C1.02531 1.83766 0.849197 1.71712 0.6921 1.5739C0.564301 1.45998 0.601563 1.31652 0.742261 1.24177C0.925225 1.14673 1.09692 1.02999 1.28364 0.94218C1.33121 0.920251 1.43381 0.956831 1.47949 0.999046C1.82885 1.33456 2.16961 1.68233 2.51732 2.02315C2.70216 2.20455 2.89057 2.38604 3.08758 2.55528C3.20613 2.65648 3.28946 2.77458 3.49527 2.80317C3.69394 2.83158 3.88723 3.06313 4.05395 3.23336C4.18212 3.36155 4.2395 3.37376 4.34631 3.23035C4.87367 2.53097 5.41018 1.84074 5.94487 1.14868C6.10353 0.942437 6.45305 0.874961 6.72698 0.985595C6.79727 1.01419 6.87433 1.0287 6.94763 1.03598C7.15316 1.05387 7.29201 1.31787 7.18431 1.49514C7.17736 1.50208 7.15228 1.49786 7.13627 1.49922C7.05794 1.50429 6.94492 1.47813 6.91035 1.52002C6.53889 1.97565 6.18737 2.44429 5.81591 2.89992C5.52565 3.25604 5.21717 3.59743 4.91968 3.9498C4.90056 3.96891 4.90947 4.0369 4.93328 4.06071C5.04534 4.1867 5.15924 4.31452 5.28512 4.42304C5.35442 4.48192 5.4828 4.48174 5.53087 4.54719C5.6197 4.67079 5.65235 4.82857 5.73422 4.95911C5.83459 5.1151 5.95948 5.25391 6.07567 5.40141C6.08849 5.41423 6.11009 5.42193 6.12464 5.43301C6.12408 5.4116 6.13047 5.38323 6.1194 5.36868C6.07315 5.30505 6.02344 5.2449 5.97545 5.183C5.96264 5.17019 5.94982 5.15737 5.94578 5.13943C5.94386 5.13403 5.96114 5.11308 5.96654 5.11501C5.98631 5.12088 6.00617 5.13032 6.01899 5.14314C6.15331 5.30181 6.28589 5.46222 6.42378 5.62098C6.56725 5.78881 6.71256 5.95847 6.86646 6.11587C6.89942 6.14884 7.01095 6.11789 7.0332 6.15057C7.20005 6.39391 7.36342 6.64072 7.50392 6.89941C7.53579 6.9591 7.48919 7.08626 7.43917 7.15092C7.2582 7.39045 7.0884 7.64811 6.86523 7.84195C6.51647 8.14304 6.31996 8.06119 6.15109 7.60382C6.10894 7.49215 6.08078 7.37016 6.01403 7.27211C5.60607 6.67293 5.19637 6.07548 4.77084 5.48653C4.59512 5.24475 4.38089 5.03048 4.18075 4.80945C4.16243 4.79113 4.0928 4.78752 4.07185 4.8048C3.34836 5.43661 2.72163 6.15478 2.17345 6.94456C2.09783 7.05313 2.05889 7.13234 2.24174 7.16925C2.26864 7.17531 2.29263 7.20626 2.31991 7.22659C2.29531 7.24021 2.27088 7.26096 2.24435 7.26918C2.10108 7.31355 1.9578 7.35793 1.81269 7.40047C1.68881 7.43644 1.31712 7.26974 1.26929 7.14544C1.25601 7.11478 1.2903 7.06219 1.31078 7.02706C1.48039 6.76227 1.65 6.49747 1.82684 6.23644C1.9127 6.11031 2.00588 5.99151 2.10447 5.87463C2.3983 5.5186 2.69579 5.16623 2.99501 4.81212C3.1524 4.62546 3.31711 4.44613 3.46535 4.25032C3.49461 4.21008 3.49171 4.09944 3.45866 4.06291C3.29157 3.87841 3.11058 3.70781 2.93297 3.53017C2.93818 3.52496 2.94339 3.51975 2.94861 3.51453L2.9433 3.51618Z" fill="black"/>
<path d="M2.9433 3.51618L2.81155 3.66665L2.89567 3.74031L3.00248 3.70722L2.9433 3.51618ZM1.18406 1.97558L1.31537 1.82472L1.31523 1.8246L1.18406 1.97558ZM0.6921 1.5739L0.826853 1.42609L0.825182 1.4246L0.6921 1.5739ZM0.742261 1.24177L0.650063 1.06428L0.64842 1.06515L0.742261 1.24177ZM1.28364 0.94218L1.19991 0.760543L1.19853 0.761194L1.28364 0.94218ZM1.47949 0.999046L1.61805 0.85477L1.61523 0.85216L1.47949 0.999046ZM2.51732 2.02315L2.65741 1.88041L2.65732 1.88032L2.51732 2.02315ZM3.08758 2.55528L2.95725 2.70699L2.95773 2.7074L3.08758 2.55528ZM3.49527 2.80317L3.52358 2.60519L3.5228 2.60508L3.49527 2.80317ZM4.05395 3.23336L3.91105 3.37331L3.91251 3.37477L4.05395 3.23336ZM4.34631 3.23035L4.18661 3.10994L4.1859 3.11089L4.34631 3.23035ZM5.94487 1.14868L6.10314 1.27095L6.10339 1.27062L5.94487 1.14868ZM6.72698 0.985594L6.80235 0.800339L6.80188 0.800148L6.72698 0.985594ZM6.94762 1.03598L6.92786 1.23502L6.93028 1.23523L6.94762 1.03598ZM7.18431 1.49514L7.32572 1.63657L7.34273 1.61955L7.35523 1.59899L7.18431 1.49514ZM7.13627 1.49922L7.14919 1.69884L7.15322 1.6985L7.13627 1.49922ZM6.91035 1.52002L6.7561 1.39272L6.75534 1.39364L6.91035 1.52002ZM5.81591 2.89992L5.66089 2.77354L5.66088 2.77356L5.81591 2.89992ZM4.91968 3.9498L5.06109 4.09123L5.06706 4.08526L5.0725 4.07881L4.91968 3.9498ZM4.93328 4.06071L5.08297 3.92756L5.07471 3.9193L4.93328 4.06071ZM5.28512 4.42304L5.15452 4.57452L5.15561 4.57545L5.28512 4.42304ZM5.53087 4.54719L5.69329 4.43047L5.69207 4.42881L5.53087 4.54719ZM5.73422 4.95911L5.56478 5.06538L5.56603 5.06733L5.73422 4.95911ZM6.07567 5.40141L5.91857 5.52517L5.92588 5.53446L5.93424 5.54281L6.07567 5.40141ZM6.12464 5.43301L6.00349 5.59213L6.33548 5.84491L6.32458 5.42778L6.12464 5.43301ZM6.1194 5.36868L5.95757 5.48629L5.96025 5.48981L6.1194 5.36868ZM5.97545 5.183L6.13352 5.06047L6.1258 5.05051L6.11689 5.0416L5.97545 5.183ZM5.94578 5.13943L6.14091 5.09553L6.13825 5.08371L6.13418 5.07229L5.94578 5.13943ZM5.96654 5.11501L5.89928 5.30367L5.90961 5.30674L5.96654 5.11501ZM6.01899 5.14314L6.17164 5.01392L6.16629 5.00759L6.16043 5.00173L6.01899 5.14314ZM6.42378 5.62098L6.57581 5.49102L6.57478 5.48984L6.42378 5.62098ZM6.86646 6.11587L6.72345 6.2557L6.72503 6.25728L6.86646 6.11587ZM7.0332 6.15057L6.86788 6.26313L6.86825 6.26367L7.0332 6.15057ZM7.50392 6.89941L7.68034 6.80519L7.67967 6.80396L7.50392 6.89941ZM7.43917 7.15092L7.28097 7.02853L7.27959 7.03036L7.43917 7.15092ZM6.86523 7.84195L6.99592 7.99333L6.99638 7.99294L6.86523 7.84195ZM6.15109 7.60382L6.33871 7.53454L6.3382 7.53319L6.15109 7.60382ZM6.01403 7.27211L6.17935 7.15955L6.01403 7.27211ZM4.77084 5.48653L4.93296 5.3694L4.93263 5.36895L4.77084 5.48653ZM4.18075 4.80945L4.32918 4.67504L4.32218 4.66804L4.18075 4.80945ZM4.07185 4.8048L3.94453 4.65046L3.9403 4.65415L4.07185 4.8048ZM2.17345 6.94456L2.33757 7.05887L2.33775 7.0586L2.17345 6.94456ZM2.24174 7.16925L2.28568 6.97409L2.28131 6.97321L2.24174 7.16925ZM2.31991 7.22659L2.41675 7.40158L2.68798 7.25149L2.43944 7.06623L2.31991 7.22659ZM2.24435 7.26918L2.18518 7.07813L2.24435 7.26918ZM1.81269 7.40047L1.86846 7.59254L1.86896 7.59239L1.81269 7.40047ZM1.26929 7.14544L1.45611 7.07356L1.45281 7.06594L1.26929 7.14544ZM1.31078 7.02706L1.14222 6.91909L1.138 6.92632L1.31078 7.02706ZM1.82684 6.23644L1.66151 6.12389L1.66126 6.12426L1.82684 6.23644ZM2.10447 5.87463L2.25735 6.00359L2.25872 6.00193L2.10447 5.87463ZM2.99501 4.81212L3.14778 4.94121L3.14792 4.94104L2.99501 4.81212ZM3.46535 4.25032L3.62484 4.37105L3.6271 4.36794L3.46535 4.25032ZM3.45866 4.06291L3.60697 3.92873L3.6069 3.92865L3.45866 4.06291ZM2.93297 3.53017L2.79156 3.38874L2.65012 3.53015L2.79153 3.67158L2.93297 3.53017ZM2.94861 3.51453L3.09002 3.65597L2.88943 3.32349L2.94861 3.51453ZM3.07505 3.36571C2.48993 2.85338 1.90498 2.33795 1.31537 1.82472L1.05274 2.12643C1.64187 2.63924 2.22507 3.15313 2.81155 3.66665L3.07505 3.36571ZM1.31523 1.8246C1.23101 1.75143 1.14243 1.6831 1.06063 1.61916C0.977067 1.55384 0.899185 1.49205 0.826845 1.4261L0.557356 1.7217C0.642112 1.79897 0.730837 1.86907 0.81429 1.9343C0.89951 2.00092 0.978359 2.06181 1.05288 2.12656L1.31523 1.8246ZM0.825182 1.4246C0.812273 1.4131 0.810808 1.40737 0.811879 1.41005C0.812401 1.41135 0.81325 1.41402 0.813646 1.41784C0.814043 1.42168 0.813875 1.42563 0.813198 1.42931C0.811787 1.43699 0.809061 1.43925 0.811236 1.43662C0.813619 1.43374 0.820776 1.42653 0.836102 1.41839L0.64842 1.06515C0.540426 1.12253 0.444713 1.22141 0.41979 1.35699C0.393558 1.49969 0.455091 1.63056 0.559019 1.7232L0.825182 1.4246ZM0.834456 1.41925C0.931517 1.36883 1.02578 1.31254 1.11238 1.26198C1.20116 1.21015 1.28412 1.16297 1.36876 1.12317L1.19853 0.761194C1.09644 0.809204 1.00019 0.864297 0.910703 0.916544C0.819035 0.970064 0.735969 1.01966 0.650067 1.06428L0.834456 1.41925ZM1.36737 1.12381C1.35164 1.13106 1.33855 1.13371 1.33088 1.13476C1.32304 1.13583 1.31786 1.13563 1.3161 1.13553C1.31309 1.13535 1.3154 1.13519 1.32251 1.13742C1.32911 1.13949 1.33601 1.14242 1.34161 1.14543C1.34428 1.14686 1.34593 1.14793 1.34662 1.1484C1.34741 1.14894 1.34625 1.14824 1.34376 1.14593L1.61523 0.85216C1.56476 0.80552 1.49883 0.773479 1.44204 0.755696C1.41185 0.746243 1.37673 0.738413 1.33968 0.736225C1.3052 0.734189 1.25309 0.736037 1.19992 0.760548L1.36737 1.12381ZM1.34096 1.1433C1.69041 1.47891 2.02469 1.82034 2.37732 2.16598L2.65732 1.88032C2.31453 1.54433 1.96728 1.19022 1.61803 0.854797L1.34096 1.1433ZM2.37723 2.1659C2.56254 2.34776 2.75491 2.53317 2.95725 2.70699L3.2179 2.40357C3.02623 2.23892 2.84178 2.06135 2.65741 1.88041L2.37723 2.1659ZM2.95773 2.7074C3.04241 2.77968 3.1869 2.96225 3.46774 3.00127L3.5228 2.60508C3.39201 2.5869 3.36985 2.53327 3.21742 2.40316L2.95773 2.7074ZM3.46696 3.00116C3.50565 3.00669 3.56648 3.0378 3.65447 3.11523C3.74111 3.19148 3.81876 3.27905 3.91106 3.3733L4.19683 3.09341C4.12242 3.01743 4.02006 2.90413 3.91872 2.81494C3.81872 2.72694 3.68356 2.62807 3.52358 2.60519L3.46696 3.00116ZM3.91251 3.37477C3.9469 3.40916 3.9854 3.44496 4.02675 3.47288C4.06833 3.50096 4.12812 3.53167 4.20288 3.53364C4.35929 3.53775 4.45639 3.41737 4.50671 3.34981L4.1859 3.11089C4.17534 3.12508 4.16711 3.135 4.16088 3.1418C4.15456 3.14869 4.15185 3.15067 4.1526 3.1501C4.15351 3.14941 4.15965 3.14488 4.17086 3.1407C4.17653 3.13859 4.18318 3.13669 4.19067 3.13541C4.19818 3.13412 4.20583 3.13358 4.2134 3.13378C4.22882 3.13418 4.24041 3.13756 4.24686 3.14006C4.25278 3.14235 4.25424 3.14384 4.25061 3.14139C4.24703 3.13897 4.24065 3.13419 4.23083 3.12558C4.22112 3.11705 4.20951 3.10608 4.19538 3.09195L3.91251 3.37477ZM4.506 3.35076C5.03245 2.65259 5.56794 1.96367 6.10314 1.27095L5.7866 1.0264C5.25242 1.7178 4.71489 2.40934 4.18662 3.10994L4.506 3.35076ZM6.10339 1.27062C6.14636 1.21477 6.22566 1.16608 6.33262 1.14428C6.43841 1.12273 6.5541 1.13147 6.65208 1.17104L6.80188 0.800148C6.62592 0.729086 6.42989 0.716248 6.25277 0.752334C6.07683 0.78818 5.90204 0.876342 5.78635 1.02673L6.10339 1.27062ZM6.65161 1.17085C6.746 1.20925 6.84371 1.22665 6.92786 1.235L6.96739 0.836959C6.90494 0.830758 6.84854 0.819132 6.80235 0.80034L6.65161 1.17085ZM6.93028 1.23523C6.94988 1.23693 6.98292 1.25365 7.00594 1.29797C7.02884 1.34207 7.02262 1.37608 7.01338 1.39128L7.35523 1.59899C7.45369 1.43693 7.43191 1.25031 7.36092 1.11362C7.29006 0.977153 7.15091 0.85292 6.96497 0.836735L6.93028 1.23523ZM7.0429 1.3537C7.06657 1.33004 7.09108 1.31777 7.1067 1.31152C7.12253 1.3052 7.13566 1.30251 7.14292 1.30129C7.15061 1.29999 7.15644 1.29958 7.15923 1.29943C7.16219 1.29926 7.16403 1.29927 7.16408 1.29927C7.16413 1.29927 7.16361 1.29927 7.16164 1.29922C7.16052 1.2992 7.15651 1.29908 7.15364 1.29903C7.14809 1.29891 7.13455 1.29864 7.11932 1.29994L7.15322 1.6985C7.14599 1.69911 7.1416 1.69886 7.14547 1.69894C7.14731 1.69898 7.14808 1.69901 7.1517 1.6991C7.15448 1.69917 7.15867 1.69926 7.1633 1.69927C7.17069 1.69929 7.18863 1.69922 7.20932 1.69574C7.22016 1.69392 7.23651 1.6904 7.25511 1.68298C7.27349 1.67563 7.30031 1.66197 7.32572 1.63657L7.0429 1.3537ZM7.12335 1.29964C7.11601 1.30011 7.10407 1.30001 7.08257 1.29896C7.06519 1.29811 7.03566 1.29624 7.01006 1.29584C6.98445 1.29544 6.94681 1.29592 6.90796 1.30412C6.87067 1.31198 6.80593 1.33234 6.7561 1.39272L7.06461 1.64732C7.03206 1.68676 6.99441 1.69468 6.99049 1.69551C6.985 1.69667 6.98699 1.69553 7.00374 1.69579C7.02051 1.69605 7.03608 1.69716 7.06301 1.69848C7.0858 1.6996 7.11736 1.70086 7.14919 1.6988L7.12335 1.29964ZM6.75534 1.39364C6.56812 1.62328 6.38614 1.85594 6.2056 2.08675C6.02465 2.31808 5.84514 2.54755 5.66089 2.77354L5.97092 3.0263C6.15814 2.79666 6.34012 2.564 6.52066 2.33319C6.70161 2.10186 6.88112 1.87239 7.06536 1.6464L6.75534 1.39364ZM5.66088 2.77356C5.37055 3.12977 5.0717 3.4597 4.76686 3.82078L5.0725 4.07881C5.36264 3.73515 5.68074 3.38232 5.97094 3.02627L5.66088 2.77356ZM4.77827 3.80836C4.7297 3.85692 4.71697 3.91431 4.71281 3.94083C4.70777 3.97295 4.70879 4.00337 4.71195 4.02846C4.71693 4.06803 4.73365 4.14391 4.79184 4.20212L5.07471 3.9193C5.09551 3.9401 5.10314 3.9592 5.10491 3.96375C5.10752 3.97049 5.10841 3.97523 5.10882 3.97853C5.10916 3.98125 5.11005 3.9896 5.10797 4.00285C5.10689 4.00973 5.1045 4.02124 5.09871 4.03528C5.09306 4.049 5.08203 4.07029 5.06109 4.09123L4.77827 3.80836ZM4.78384 4.19363C4.89438 4.3179 5.01692 4.45589 5.15452 4.57452L5.41571 4.27156C5.30156 4.17315 5.19631 4.05549 5.08271 3.92779L4.78384 4.19363ZM5.15561 4.57545C5.19533 4.60919 5.23766 4.62975 5.26979 4.64299C5.30077 4.65576 5.33426 4.66628 5.35305 4.6725C5.37657 4.68029 5.38629 4.6842 5.39129 4.68674C5.39556 4.68891 5.38288 4.68356 5.36967 4.66558L5.69207 4.42881C5.65483 4.3781 5.60807 4.34823 5.57259 4.33018C5.53783 4.31251 5.50211 4.3005 5.47886 4.2928C5.45088 4.28353 5.43628 4.27896 5.4222 4.27316C5.40926 4.26783 5.40955 4.26632 5.41462 4.27063L5.15561 4.57545ZM5.36846 4.66391C5.3977 4.70459 5.42041 4.75475 5.45038 4.82709C5.47761 4.89281 5.51297 4.98274 5.56479 5.06537L5.90366 4.85285C5.87361 4.80494 5.8517 4.75071 5.81993 4.674C5.79089 4.60392 5.75287 4.51339 5.69328 4.43048L5.36846 4.66391ZM5.56603 5.06733C5.67317 5.23385 5.81337 5.39164 5.91857 5.52517L6.23278 5.27764C6.10558 5.11618 5.99601 4.99636 5.90242 4.85089L5.56603 5.06733ZM5.93424 5.54281C5.9498 5.55838 5.96503 5.56947 5.97589 5.5767C5.98672 5.58391 5.99666 5.58951 6.00219 5.59259C6.01017 5.59703 6.00991 5.59681 6.01222 5.59815C6.01328 5.59877 6.00932 5.59658 6.00349 5.59213L6.2458 5.27388C6.23269 5.2639 6.22057 5.25659 6.21309 5.25224C6.20914 5.24995 6.20553 5.24794 6.20293 5.24651C6.19954 5.24463 6.19885 5.24426 6.19682 5.24313C6.19353 5.2413 6.19476 5.24188 6.19747 5.24368C6.20023 5.24552 6.20795 5.25084 6.21711 5.26L5.93424 5.54281ZM6.32458 5.42778C6.32468 5.43196 6.32443 5.43398 6.3248 5.42773C6.325 5.42437 6.32581 5.41241 6.32595 5.40074C6.3261 5.38886 6.32582 5.36812 6.32122 5.34415C6.3166 5.32005 6.30589 5.28347 6.27854 5.24755L5.96025 5.48981C5.93844 5.46116 5.93109 5.43359 5.9284 5.41956C5.92573 5.40568 5.92598 5.3961 5.92598 5.39581C5.92598 5.39572 5.92599 5.39577 5.92549 5.40421C5.92517 5.40975 5.92432 5.42335 5.92471 5.43824L6.32458 5.42778ZM6.28118 5.2511C6.23282 5.18455 6.1761 5.1154 6.13352 5.06047L5.81739 5.30554C5.87077 5.3744 5.91349 5.42555 5.95761 5.48626L6.28118 5.2511ZM6.11689 5.0416C6.11518 5.03989 6.11418 5.03889 6.11329 5.03798C6.11289 5.03758 6.11261 5.03729 6.11242 5.03709C6.11223 5.03689 6.11215 5.0368 6.11216 5.03682C6.11217 5.03683 6.11267 5.03735 6.11347 5.0383C6.11429 5.03925 6.11554 5.04077 6.11707 5.04279C6.12327 5.05103 6.13494 5.069 6.14091 5.09553L5.75066 5.18332C5.76952 5.26717 5.82915 5.31954 5.83402 5.32441L6.11689 5.0416ZM6.13418 5.07229C6.15469 5.12986 6.14207 5.17772 6.13872 5.18985C6.13372 5.20803 6.12718 5.22108 6.12398 5.22708C6.1172 5.23981 6.1106 5.24829 6.10666 5.25299C6.10298 5.25737 6.09482 5.26661 6.0814 5.27677C6.07518 5.28147 6.06056 5.29197 6.03906 5.30067C6.02258 5.30734 5.96702 5.32751 5.89938 5.30339L6.03371 4.92663C5.96472 4.90203 5.90744 4.92243 5.88898 4.9299C5.86551 4.9394 5.84867 4.95126 5.84011 4.95774C5.82198 4.97145 5.80861 4.9859 5.80018 4.99595C5.79148 5.00632 5.78058 5.02094 5.77093 5.03905C5.7663 5.04774 5.75869 5.0633 5.75308 5.08365C5.74914 5.09795 5.73639 5.14765 5.75739 5.20656L6.13418 5.07229ZM5.90961 5.30674C5.90947 5.30669 5.90725 5.30606 5.90317 5.30394C5.89967 5.30213 5.8895 5.29649 5.87756 5.28455L6.16043 5.00173C6.1141 4.95539 6.05815 4.93358 6.02347 4.92328L5.90961 5.30674ZM5.86634 5.27236C5.99855 5.42854 6.13388 5.5922 6.27278 5.75213L6.57478 5.48984C6.4379 5.33223 6.30807 5.17508 6.17164 5.01392L5.86634 5.27236ZM6.27176 5.75094C6.41459 5.91802 6.56413 6.09274 6.72346 6.25569L7.00946 5.97605C6.86098 5.82419 6.71992 5.6596 6.5758 5.49102L6.27176 5.75094ZM6.72503 6.25728C6.75457 6.28683 6.78677 6.30319 6.81117 6.31246C6.83551 6.3217 6.858 6.32612 6.87451 6.32852C6.90543 6.33302 6.93709 6.33312 6.95114 6.33331C6.97292 6.3336 6.97431 6.33404 6.97143 6.33359C6.96893 6.3332 6.95623 6.33118 6.93932 6.32361C6.92174 6.31575 6.89183 6.29831 6.86788 6.26313L7.19852 6.03802C7.16901 5.99467 7.13075 5.97105 7.10268 5.95849C7.07528 5.94623 7.04996 5.94101 7.03336 5.93841C7.00228 5.93354 6.96956 5.93352 6.95655 5.93335C6.93582 5.93307 6.93202 5.93268 6.93207 5.93269C6.93314 5.93284 6.94133 5.93402 6.95318 5.93852C6.96509 5.94304 6.98659 5.95316 7.00789 5.97446L6.72503 6.25728ZM6.86825 6.26367C7.03434 6.50591 7.19284 6.7457 7.32817 6.99487L7.67967 6.80396C7.534 6.53575 7.36575 6.28191 7.19815 6.03747L6.86825 6.26367ZM7.3275 6.99363C7.31984 6.97928 7.31678 6.9672 7.31551 6.96017C7.31424 6.95313 7.31437 6.94894 7.31438 6.94853C7.31439 6.94836 7.314 6.95454 7.31038 6.96687C7.30695 6.97852 7.30186 6.99147 7.29576 7.00374C7.28951 7.01633 7.28392 7.02473 7.28098 7.02854L7.59736 7.27329C7.63939 7.21896 7.67406 7.14798 7.69413 7.07972C7.70442 7.04472 7.71284 7.00388 7.71418 6.96106C7.71546 6.92028 7.71082 6.86227 7.68034 6.8052L7.3275 6.99363ZM7.27959 7.03036C7.0873 7.28488 6.93649 7.51514 6.73408 7.69095L6.99638 7.99294C7.24032 7.78107 7.4291 7.49602 7.59875 7.27148L7.27959 7.03036ZM6.73453 7.69056C6.56402 7.83776 6.50793 7.81894 6.507 7.81861C6.5023 7.81696 6.4813 7.80767 6.44812 7.76078C6.41473 7.7136 6.37796 7.64086 6.33871 7.53454L5.96347 7.67309C6.00865 7.79546 6.05977 7.90446 6.12162 7.99186C6.18368 8.07955 6.26527 8.15765 6.3744 8.196C6.60113 8.27566 6.81767 8.14722 6.99592 7.99333L6.73453 7.69056ZM6.3382 7.53319C6.32914 7.50919 6.32055 7.48388 6.31091 7.45511C6.30162 7.42741 6.29113 7.39577 6.27971 7.36443C6.25692 7.30182 6.22648 7.22878 6.17935 7.15955L5.84871 7.38467C5.86833 7.41348 5.88535 7.45047 5.90386 7.50129C5.91309 7.52666 5.92171 7.55259 5.93164 7.58223C5.94122 7.6108 5.95196 7.64261 5.96397 7.67445L6.3382 7.53319ZM6.17935 7.15955C5.77128 6.56022 5.36024 5.96079 4.93296 5.3694L4.60873 5.60366C5.03249 6.19017 5.44085 6.78563 5.84871 7.38467L6.17935 7.15955ZM4.93263 5.36895C4.74849 5.11558 4.52013 4.88629 4.329 4.6752L4.03249 4.94369C4.24164 5.17467 4.44176 5.37392 4.60906 5.60411L4.93263 5.36895ZM4.32218 4.66804C4.28117 4.62702 4.23354 4.61177 4.21295 4.60599C4.18627 4.59851 4.15982 4.59507 4.13654 4.59399C4.11326 4.59291 4.08637 4.59389 4.05876 4.59899C4.03665 4.60308 3.98867 4.61414 3.94458 4.65052L4.19913 4.95907C4.18038 4.97454 4.16311 4.98229 4.15367 4.98592C4.14356 4.98982 4.13571 4.99154 4.1315 4.99232C4.1234 4.99382 4.119 4.99361 4.11804 4.99356C4.11707 4.99352 4.11277 4.99333 4.10495 4.99114C4.10091 4.99 4.09322 4.98758 4.08343 4.98276C4.07443 4.97834 4.05724 4.96879 4.03931 4.95086L4.32218 4.66804ZM3.9403 4.65415C3.2032 5.29784 2.56573 6.02864 2.00915 6.83052L2.33775 7.0586C2.87754 6.28092 3.49351 5.57538 4.20341 4.95544L3.9403 4.65415ZM2.00934 6.83025C1.98995 6.8581 1.96566 6.8941 1.94699 6.93212C1.92955 6.96763 1.90447 7.02919 1.9116 7.103C1.92004 7.19046 1.96903 7.25686 2.03022 7.2988C2.08343 7.33528 2.14572 7.35391 2.20216 7.3653L2.28131 6.97321C2.26554 6.97002 2.25614 6.96716 2.25143 6.96545C2.24651 6.96367 2.24944 6.96412 2.25638 6.96888C2.26376 6.97394 2.27678 6.98466 2.28855 7.00316C2.30087 7.02251 2.30776 7.04401 2.30974 7.06456C2.3116 7.08375 2.30879 7.09778 2.30715 7.10407C2.30556 7.11018 2.30428 7.112 2.30603 7.10844C2.31021 7.09992 2.31915 7.08531 2.33757 7.05887L2.00934 6.83025ZM2.19781 7.36437C2.17556 7.35936 2.16076 7.35085 2.15483 7.34711C2.15159 7.34506 2.14957 7.34354 2.14899 7.34309C2.1484 7.34263 2.14861 7.34276 2.14992 7.3439C2.15127 7.34506 2.15306 7.34665 2.15591 7.34924C2.15806 7.35119 2.16264 7.35538 2.16618 7.35856C2.17386 7.36548 2.18598 7.37621 2.20039 7.38695L2.43944 7.06623C2.44021 7.06681 2.4391 7.06604 2.43377 7.06125C2.43097 7.05873 2.41972 7.04838 2.41145 7.04124C2.40189 7.03298 2.38685 7.02052 2.36811 7.00871C2.34926 6.99683 2.32137 6.98218 2.28567 6.97414L2.19781 7.36437ZM2.22308 7.0516C2.21082 7.05838 2.20011 7.0652 2.1928 7.06992C2.18921 7.07225 2.18532 7.0748 2.18276 7.07647C2.17985 7.07838 2.1777 7.07977 2.17582 7.08096C2.1719 7.08345 2.17107 7.08381 2.17198 7.08334C2.17297 7.08283 2.17762 7.08048 2.18518 7.07813L2.30352 7.46023C2.34324 7.44792 2.37442 7.42866 2.38989 7.41886C2.39673 7.41452 2.40756 7.4074 2.41011 7.40574C2.41247 7.40422 2.41409 7.4032 2.4153 7.40246C2.41649 7.40173 2.41691 7.4015 2.41675 7.40158L2.22308 7.0516ZM2.18518 7.07813C2.04167 7.12258 1.89984 7.1665 1.75642 7.20855L1.86896 7.59239C2.01576 7.54935 2.16048 7.50453 2.30352 7.46023L2.18518 7.07813ZM1.75693 7.2084C1.77823 7.20222 1.77474 7.20961 1.72819 7.19863C1.69063 7.18976 1.64378 7.17335 1.59618 7.15142C1.54845 7.12942 1.50645 7.10485 1.47676 7.08264C1.43949 7.05476 1.44663 7.0494 1.45595 7.07362L1.08264 7.21727C1.11587 7.30363 1.18741 7.36572 1.23716 7.40294C1.29448 7.44581 1.36211 7.48398 1.42876 7.5147C1.49555 7.54548 1.56785 7.57177 1.63631 7.58793C1.69579 7.60197 1.78522 7.61671 1.86846 7.59254L1.75693 7.2084ZM1.45281 7.06594C1.47033 7.10638 1.46654 7.14025 1.46446 7.1525C1.46226 7.16542 1.45897 7.17178 1.46022 7.16896C1.46107 7.16704 1.46319 7.16276 1.46763 7.15495C1.46974 7.15124 1.47204 7.14732 1.47475 7.14272C1.47717 7.13863 1.4806 7.13286 1.48355 7.1278L1.138 6.92632C1.13247 6.93581 1.10987 6.97226 1.09453 7.00689C1.08631 7.02544 1.07566 7.05289 1.07013 7.08539C1.06471 7.11723 1.06161 7.16917 1.08577 7.22494L1.45281 7.06594ZM1.47919 7.13494C1.64903 6.86978 1.81726 6.60716 1.99242 6.34861L1.66126 6.12426C1.48273 6.38778 1.31175 6.65475 1.14236 6.91919L1.47919 7.13494ZM1.99217 6.34898C2.07306 6.23015 2.16171 6.11695 2.25735 6.00358L1.95159 5.74568C1.85005 5.86606 1.75234 5.99046 1.66151 6.12389L1.99217 6.34898ZM2.25872 6.00193C2.5517 5.64692 2.84848 5.29539 3.14778 4.94121L2.84225 4.68303C2.54309 5.03706 2.24489 5.39027 1.95021 5.74732L2.25872 6.00193ZM3.14792 4.94104C3.29785 4.76322 3.47254 4.57218 3.62481 4.37103L3.30588 4.1296C3.16169 4.32008 3.00695 4.4877 2.84211 4.68319L3.14792 4.94104ZM3.6271 4.36794C3.65824 4.32512 3.67126 4.27912 3.67739 4.2485C3.68416 4.21473 3.68628 4.18044 3.68527 4.1488C3.68425 4.11725 3.67994 4.08266 3.67053 4.04865C3.66206 4.018 3.6448 3.97055 3.60697 3.92873L3.31035 4.19709C3.29861 4.18411 3.29237 4.17265 3.28952 4.16673C3.28649 4.16046 3.28529 4.15631 3.285 4.15524C3.28452 4.15351 3.28529 4.15594 3.28547 4.16165C3.28566 4.16726 3.28508 4.17046 3.28519 4.16989C3.28529 4.16943 3.28595 4.16615 3.28801 4.16078C3.28992 4.15577 3.29442 4.14531 3.30359 4.1327L3.6271 4.36794ZM3.6069 3.92865C3.43541 3.7393 3.2464 3.56079 3.0744 3.38876L2.79153 3.67158C2.97475 3.85483 3.14773 4.01752 3.31042 4.19717L3.6069 3.92865ZM3.07438 3.6716C3.07439 3.67159 3.0744 3.67158 3.07441 3.67157C3.07442 3.67156 3.07443 3.67155 3.07444 3.67154C3.07445 3.67153 3.07446 3.67152 3.07447 3.67151C3.07448 3.6715 3.07449 3.67149 3.0745 3.67148C3.07451 3.67147 3.07452 3.67146 3.07453 3.67145C3.07454 3.67144 3.07455 3.67143 3.07456 3.67142C3.07457 3.67141 3.07458 3.6714 3.07459 3.67139C3.0746 3.67138 3.07461 3.67137 3.07462 3.67136C3.07463 3.67135 3.07464 3.67134 3.07465 3.67133C3.07466 3.67132 3.07467 3.67131 3.07468 3.6713C3.07469 3.67129 3.0747 3.67128 3.07471 3.67127C3.07472 3.67126 3.07473 3.67125 3.07474 3.67124C3.07475 3.67123 3.07476 3.67122 3.07477 3.67121C3.07478 3.6712 3.07479 3.67119 3.0748 3.67118C3.07481 3.67117 3.07482 3.67116 3.07483 3.67115C3.07484 3.67114 3.07485 3.67113 3.07486 3.67112C3.07488 3.67111 3.07489 3.6711 3.0749 3.67109C3.07491 3.67108 3.07492 3.67107 3.07493 3.67106C3.07494 3.67104 3.07495 3.67103 3.07496 3.67102C3.07497 3.67101 3.07498 3.671 3.07499 3.67099C3.075 3.67098 3.07501 3.67097 3.07502 3.67096C3.07503 3.67095 3.07504 3.67094 3.07505 3.67093C3.07506 3.67092 3.07507 3.67091 3.07508 3.6709C3.07509 3.67089 3.0751 3.67088 3.07511 3.67087C3.07512 3.67086 3.07513 3.67085 3.07514 3.67084C3.07515 3.67083 3.07516 3.67082 3.07517 3.67081C3.07518 3.6708 3.07519 3.67079 3.0752 3.67078C3.07521 3.67077 3.07522 3.67076 3.07523 3.67075C3.07524 3.67074 3.07525 3.67073 3.07526 3.67072C3.07527 3.67071 3.07528 3.6707 3.07529 3.67069C3.0753 3.67068 3.07531 3.67067 3.07532 3.67066C3.07533 3.67065 3.07534 3.67064 3.07535 3.67063C3.07536 3.67062 3.07537 3.67061 3.07538 3.6706C3.07539 3.67059 3.0754 3.67058 3.07541 3.67057C3.07542 3.67056 3.07544 3.67055 3.07545 3.67054C3.07546 3.67053 3.07547 3.67052 3.07548 3.67051C3.07549 3.6705 3.0755 3.67048 3.07551 3.67047C3.07552 3.67046 3.07553 3.67045 3.07554 3.67044C3.07555 3.67043 3.07556 3.67042 3.07557 3.67041C3.07558 3.6704 3.07559 3.67039 3.0756 3.67038C3.07561 3.67037 3.07562 3.67036 3.07563 3.67035C3.07564 3.67034 3.07565 3.67033 3.07566 3.67032C3.07567 3.67031 3.07568 3.6703 3.07569 3.67029C3.0757 3.67028 3.07571 3.67027 3.07572 3.67026C3.07573 3.67025 3.07574 3.67024 3.07575 3.67023C3.07576 3.67022 3.07577 3.67021 3.07578 3.6702C3.07579 3.67019 3.0758 3.67018 3.07581 3.67017C3.07582 3.67016 3.07583 3.67015 3.07584 3.67014C3.07585 3.67013 3.07586 3.67012 3.07587 3.67011C3.07588 3.6701 3.07589 3.67009 3.0759 3.67008C3.07591 3.67007 3.07592 3.67006 3.07593 3.67005C3.07594 3.67004 3.07595 3.67003 3.07596 3.67002C3.07597 3.67001 3.07599 3.67 3.076 3.66999C3.07601 3.66998 3.07602 3.66997 3.07603 3.66996C3.07604 3.66995 3.07605 3.66994 3.07606 3.66993C3.07607 3.66991 3.07608 3.6699 3.07609 3.66989C3.0761 3.66988 3.07611 3.66987 3.07612 3.66986C3.07613 3.66985 3.07614 3.66984 3.07615 3.66983C3.07616 3.66982 3.07617 3.66981 3.07618 3.6698C3.07619 3.66979 3.0762 3.66978 3.07621 3.66977C3.07622 3.66976 3.07623 3.66975 3.07624 3.66974C3.07625 3.66973 3.07626 3.66972 3.07627 3.66971C3.07628 3.6697 3.07629 3.66969 3.0763 3.66968C3.07631 3.66967 3.07632 3.66966 3.07633 3.66965C3.07634 3.66964 3.07635 3.66963 3.07636 3.66962C3.07637 3.66961 3.07638 3.6696 3.07639 3.66959C3.0764 3.66958 3.07641 3.66957 3.07642 3.66956C3.07643 3.66955 3.07644 3.66954 3.07645 3.66953C3.07646 3.66952 3.07647 3.66951 3.07648 3.6695C3.07649 3.66949 3.0765 3.66948 3.07651 3.66947C3.07652 3.66946 3.07653 3.66945 3.07654 3.66944C3.07656 3.66943 3.07657 3.66942 3.07658 3.66941C3.07659 3.6694 3.0766 3.66939 3.07661 3.66938C3.07662 3.66937 3.07663 3.66936 3.07664 3.66934C3.07665 3.66933 3.07666 3.66932 3.07667 3.66931C3.07668 3.6693 3.07669 3.66929 3.0767 3.66928C3.07671 3.66927 3.07672 3.66926 3.07673 3.66925C3.07674 3.66924 3.07675 3.66923 3.07676 3.66922C3.07677 3.66921 3.07678 3.6692 3.07679 3.66919C3.0768 3.66918 3.07681 3.66917 3.07682 3.66916C3.07683 3.66915 3.07684 3.66914 3.07685 3.66913C3.07686 3.66912 3.07687 3.66911 3.07688 3.6691C3.07689 3.66909 3.0769 3.66908 3.07691 3.66907C3.07692 3.66906 3.07693 3.66905 3.07694 3.66904C3.07695 3.66903 3.07696 3.66902 3.07697 3.66901C3.07698 3.669 3.07699 3.66899 3.077 3.66898C3.07701 3.66897 3.07702 3.66896 3.07703 3.66895C3.07704 3.66894 3.07705 3.66893 3.07706 3.66892C3.07707 3.66891 3.07708 3.6689 3.07709 3.66889C3.07711 3.66888 3.07712 3.66887 3.07713 3.66886C3.07714 3.66885 3.07715 3.66884 3.07716 3.66883C3.07717 3.66882 3.07718 3.66881 3.07719 3.6688C3.0772 3.66878 3.07721 3.66877 3.07722 3.66876C3.07723 3.66875 3.07724 3.66874 3.07725 3.66873C3.07726 3.66872 3.07727 3.66871 3.07728 3.6687C3.07729 3.66869 3.0773 3.66868 3.07731 3.66867C3.07732 3.66866 3.07733 3.66865 3.07734 3.66864C3.07735 3.66863 3.07736 3.66862 3.07737 3.66861C3.07738 3.6686 3.07739 3.66859 3.0774 3.66858C3.07741 3.66857 3.07742 3.66856 3.07743 3.66855C3.07744 3.66854 3.07745 3.66853 3.07746 3.66852C3.07747 3.66851 3.07748 3.6685 3.07749 3.66849C3.0775 3.66848 3.07751 3.66847 3.07752 3.66846C3.07753 3.66845 3.07754 3.66844 3.07755 3.66843C3.07756 3.66842 3.07757 3.66841 3.07758 3.6684C3.07759 3.66839 3.0776 3.66838 3.07761 3.66837C3.07762 3.66836 3.07763 3.66835 3.07764 3.66834C3.07765 3.66833 3.07766 3.66832 3.07768 3.66831C3.07769 3.6683 3.0777 3.66829 3.07771 3.66828C3.07772 3.66827 3.07773 3.66826 3.07774 3.66825C3.07775 3.66824 3.07776 3.66822 3.07777 3.66821C3.07778 3.6682 3.07779 3.66819 3.0778 3.66818C3.07781 3.66817 3.07782 3.66816 3.07783 3.66815C3.07784 3.66814 3.07785 3.66813 3.07786 3.66812C3.07787 3.66811 3.07788 3.6681 3.07789 3.66809C3.0779 3.66808 3.07791 3.66807 3.07792 3.66806C3.07793 3.66805 3.07794 3.66804 3.07795 3.66803C3.07796 3.66802 3.07797 3.66801 3.07798 3.668C3.07799 3.66799 3.078 3.66798 3.07801 3.66797C3.07802 3.66796 3.07803 3.66795 3.07804 3.66794C3.07805 3.66793 3.07806 3.66792 3.07807 3.66791C3.07808 3.6679 3.07809 3.66789 3.0781 3.66788C3.07811 3.66787 3.07812 3.66786 3.07813 3.66785C3.07814 3.66784 3.07815 3.66783 3.07816 3.66782C3.07817 3.66781 3.07818 3.6678 3.07819 3.66779C3.0782 3.66778 3.07821 3.66777 3.07823 3.66776C3.07824 3.66775 3.07825 3.66774 3.07826 3.66773C3.07827 3.66772 3.07828 3.66771 3.07829 3.6677C3.0783 3.66769 3.07831 3.66768 3.07832 3.66767C3.07833 3.66765 3.07834 3.66764 3.07835 3.66763C3.07836 3.66762 3.07837 3.66761 3.07838 3.6676C3.07839 3.66759 3.0784 3.66758 3.07841 3.66757C3.07842 3.66756 3.07843 3.66755 3.07844 3.66754C3.07845 3.66753 3.07846 3.66752 3.07847 3.66751C3.07848 3.6675 3.07849 3.66749 3.0785 3.66748C3.07851 3.66747 3.07852 3.66746 3.07853 3.66745C3.07854 3.66744 3.07855 3.66743 3.07856 3.66742C3.07857 3.66741 3.07858 3.6674 3.07859 3.66739C3.0786 3.66738 3.07861 3.66737 3.07862 3.66736C3.07863 3.66735 3.07864 3.66734 3.07865 3.66733C3.07866 3.66732 3.07867 3.66731 3.07868 3.6673C3.07869 3.66729 3.0787 3.66728 3.07871 3.66727C3.07872 3.66726 3.07873 3.66725 3.07874 3.66724C3.07875 3.66723 3.07876 3.66722 3.07877 3.66721C3.07878 3.6672 3.0788 3.66719 3.07881 3.66718C3.07882 3.66717 3.07883 3.66716 3.07884 3.66715C3.07885 3.66714 3.07886 3.66713 3.07887 3.66712C3.07888 3.66711 3.07889 3.66709 3.0789 3.66708C3.07891 3.66707 3.07892 3.66706 3.07893 3.66705C3.07894 3.66704 3.07895 3.66703 3.07896 3.66702C3.07897 3.66701 3.07898 3.667 3.07899 3.66699C3.079 3.66698 3.07901 3.66697 3.07902 3.66696C3.07903 3.66695 3.07904 3.66694 3.07905 3.66693C3.07906 3.66692 3.07907 3.66691 3.07908 3.6669C3.07909 3.66689 3.0791 3.66688 3.07911 3.66687C3.07912 3.66686 3.07913 3.66685 3.07914 3.66684C3.07915 3.66683 3.07916 3.66682 3.07917 3.66681C3.07918 3.6668 3.07919 3.66679 3.0792 3.66678C3.07921 3.66677 3.07922 3.66676 3.07923 3.66675C3.07924 3.66674 3.07925 3.66673 3.07926 3.66672C3.07927 3.66671 3.07928 3.6667 3.07929 3.66669C3.0793 3.66668 3.07931 3.66667 3.07932 3.66666C3.07933 3.66665 3.07935 3.66664 3.07936 3.66663C3.07937 3.66662 3.07938 3.66661 3.07939 3.6666C3.0794 3.66659 3.07941 3.66658 3.07942 3.66657C3.07943 3.66656 3.07944 3.66655 3.07945 3.66654C3.07946 3.66652 3.07947 3.66651 3.07948 3.6665C3.07949 3.66649 3.0795 3.66648 3.07951 3.66647C3.07952 3.66646 3.07953 3.66645 3.07954 3.66644C3.07955 3.66643 3.07956 3.66642 3.07957 3.66641C3.07958 3.6664 3.07959 3.66639 3.0796 3.66638C3.07961 3.66637 3.07962 3.66636 3.07963 3.66635C3.07964 3.66634 3.07965 3.66633 3.07966 3.66632C3.07967 3.66631 3.07968 3.6663 3.07969 3.66629C3.0797 3.66628 3.07971 3.66627 3.07972 3.66626C3.07973 3.66625 3.07974 3.66624 3.07975 3.66623C3.07976 3.66622 3.07977 3.66621 3.07978 3.6662C3.07979 3.66619 3.0798 3.66618 3.07981 3.66617C3.07982 3.66616 3.07983 3.66615 3.07984 3.66614C3.07985 3.66613 3.07986 3.66612 3.07987 3.66611C3.07988 3.6661 3.07989 3.66609 3.07991 3.66608C3.07992 3.66607 3.07993 3.66606 3.07994 3.66605C3.07995 3.66604 3.07996 3.66603 3.07997 3.66602C3.07998 3.66601 3.07999 3.666 3.08 3.66599C3.08001 3.66598 3.08002 3.66597 3.08003 3.66595C3.08004 3.66594 3.08005 3.66593 3.08006 3.66592C3.08007 3.66591 3.08008 3.6659 3.08009 3.66589C3.0801 3.66588 3.08011 3.66587 3.08012 3.66586C3.08013 3.66585 3.08014 3.66584 3.08015 3.66583C3.08016 3.66582 3.08017 3.66581 3.08018 3.6658C3.08019 3.66579 3.0802 3.66578 3.08021 3.66577C3.08022 3.66576 3.08023 3.66575 3.08024 3.66574C3.08025 3.66573 3.08026 3.66572 3.08027 3.66571C3.08028 3.6657 3.08029 3.66569 3.0803 3.66568C3.08031 3.66567 3.08032 3.66566 3.08033 3.66565C3.08034 3.66564 3.08035 3.66563 3.08036 3.66562C3.08037 3.66561 3.08038 3.6656 3.08039 3.66559C3.0804 3.66558 3.08041 3.66557 3.08042 3.66556C3.08043 3.66555 3.08044 3.66554 3.08045 3.66553C3.08047 3.66552 3.08048 3.66551 3.08049 3.6655C3.0805 3.66549 3.08051 3.66548 3.08052 3.66547C3.08053 3.66546 3.08054 3.66545 3.08055 3.66544C3.08056 3.66543 3.08057 3.66542 3.08058 3.66541C3.08059 3.66539 3.0806 3.66538 3.08061 3.66537C3.08062 3.66536 3.08063 3.66535 3.08064 3.66534C3.08065 3.66533 3.08066 3.66532 3.08067 3.66531C3.08068 3.6653 3.08069 3.66529 3.0807 3.66528C3.08071 3.66527 3.08072 3.66526 3.08073 3.66525C3.08074 3.66524 3.08075 3.66523 3.08076 3.66522C3.08077 3.66521 3.08078 3.6652 3.08079 3.66519C3.0808 3.66518 3.08081 3.66517 3.08082 3.66516C3.08083 3.66515 3.08084 3.66514 3.08085 3.66513C3.08086 3.66512 3.08087 3.66511 3.08088 3.6651C3.08089 3.66509 3.0809 3.66508 3.08091 3.66507C3.08092 3.66506 3.08093 3.66505 3.08094 3.66504C3.08095 3.66503 3.08096 3.66502 3.08097 3.66501C3.08098 3.665 3.08099 3.66499 3.081 3.66498C3.08101 3.66497 3.08103 3.66496 3.08104 3.66495C3.08105 3.66494 3.08106 3.66493 3.08107 3.66492C3.08108 3.66491 3.08109 3.6649 3.0811 3.66489C3.08111 3.66488 3.08112 3.66487 3.08113 3.66486C3.08114 3.66485 3.08115 3.66483 3.08116 3.66482C3.08117 3.66481 3.08118 3.6648 3.08119 3.66479C3.0812 3.66478 3.08121 3.66477 3.08122 3.66476C3.08123 3.66475 3.08124 3.66474 3.08125 3.66473C3.08126 3.66472 3.08127 3.66471 3.08128 3.6647C3.08129 3.66469 3.0813 3.66468 3.08131 3.66467C3.08132 3.66466 3.08133 3.66465 3.08134 3.66464C3.08135 3.66463 3.08136 3.66462 3.08137 3.66461C3.08138 3.6646 3.08139 3.66459 3.0814 3.66458C3.08141 3.66457 3.08142 3.66456 3.08143 3.66455C3.08144 3.66454 3.08145 3.66453 3.08146 3.66452C3.08147 3.66451 3.08148 3.6645 3.08149 3.66449C3.0815 3.66448 3.08151 3.66447 3.08152 3.66446C3.08153 3.66445 3.08154 3.66444 3.08155 3.66443C3.08156 3.66442 3.08157 3.66441 3.08159 3.6644C3.0816 3.66439 3.08161 3.66438 3.08162 3.66437C3.08163 3.66436 3.08164 3.66435 3.08165 3.66434C3.08166 3.66433 3.08167 3.66432 3.08168 3.66431C3.08169 3.6643 3.0817 3.66429 3.08171 3.66428C3.08172 3.66426 3.08173 3.66425 3.08174 3.66424C3.08175 3.66423 3.08176 3.66422 3.08177 3.66421C3.08178 3.6642 3.08179 3.66419 3.0818 3.66418C3.08181 3.66417 3.08182 3.66416 3.08183 3.66415C3.08184 3.66414 3.08185 3.66413 3.08186 3.66412C3.08187 3.66411 3.08188 3.6641 3.08189 3.66409C3.0819 3.66408 3.08191 3.66407 3.08192 3.66406C3.08193 3.66405 3.08194 3.66404 3.08195 3.66403C3.08196 3.66402 3.08197 3.66401 3.08198 3.664C3.08199 3.66399 3.082 3.66398 3.08201 3.66397C3.08202 3.66396 3.08203 3.66395 3.08204 3.66394C3.08205 3.66393 3.08206 3.66392 3.08207 3.66391C3.08208 3.6639 3.08209 3.66389 3.0821 3.66388C3.08211 3.66387 3.08212 3.66386 3.08213 3.66385C3.08215 3.66384 3.08216 3.66383 3.08217 3.66382C3.08218 3.66381 3.08219 3.6638 3.0822 3.66379C3.08221 3.66378 3.08222 3.66377 3.08223 3.66376C3.08224 3.66375 3.08225 3.66374 3.08226 3.66373C3.08227 3.66372 3.08228 3.6637 3.08229 3.66369C3.0823 3.66368 3.08231 3.66367 3.08232 3.66366C3.08233 3.66365 3.08234 3.66364 3.08235 3.66363C3.08236 3.66362 3.08237 3.66361 3.08238 3.6636C3.08239 3.66359 3.0824 3.66358 3.08241 3.66357C3.08242 3.66356 3.08243 3.66355 3.08244 3.66354C3.08245 3.66353 3.08246 3.66352 3.08247 3.66351C3.08248 3.6635 3.08249 3.66349 3.0825 3.66348C3.08251 3.66347 3.08252 3.66346 3.08253 3.66345C3.08254 3.66344 3.08255 3.66343 3.08256 3.66342C3.08257 3.66341 3.08258 3.6634 3.08259 3.66339C3.0826 3.66338 3.08261 3.66337 3.08262 3.66336C3.08263 3.66335 3.08264 3.66334 3.08265 3.66333C3.08266 3.66332 3.08267 3.66331 3.08268 3.6633C3.08269 3.66329 3.08271 3.66328 3.08272 3.66327C3.08273 3.66326 3.08274 3.66325 3.08275 3.66324C3.08276 3.66323 3.08277 3.66322 3.08278 3.66321C3.08279 3.6632 3.0828 3.66319 3.08281 3.66318C3.08282 3.66317 3.08283 3.66316 3.08284 3.66314C3.08285 3.66313 3.08286 3.66312 3.08287 3.66311C3.08288 3.6631 3.08289 3.66309 3.0829 3.66308C3.08291 3.66307 3.08292 3.66306 3.08293 3.66305C3.08294 3.66304 3.08295 3.66303 3.08296 3.66302C3.08297 3.66301 3.08298 3.663 3.08299 3.66299C3.083 3.66298 3.08301 3.66297 3.08302 3.66296C3.08303 3.66295 3.08304 3.66294 3.08305 3.66293C3.08306 3.66292 3.08307 3.66291 3.08308 3.6629C3.08309 3.66289 3.0831 3.66288 3.08311 3.66287C3.08312 3.66286 3.08313 3.66285 3.08314 3.66284C3.08315 3.66283 3.08316 3.66282 3.08317 3.66281C3.08318 3.6628 3.08319 3.66279 3.0832 3.66278C3.08321 3.66277 3.08322 3.66276 3.08323 3.66275C3.08324 3.66274 3.08325 3.66273 3.08327 3.66272C3.08328 3.66271 3.08329 3.6627 3.0833 3.66269C3.08331 3.66268 3.08332 3.66267 3.08333 3.66266C3.08334 3.66265 3.08335 3.66264 3.08336 3.66263C3.08337 3.66262 3.08338 3.66261 3.08339 3.6626C3.0834 3.66259 3.08341 3.66257 3.08342 3.66256C3.08343 3.66255 3.08344 3.66254 3.08345 3.66253C3.08346 3.66252 3.08347 3.66251 3.08348 3.6625C3.08349 3.66249 3.0835 3.66248 3.08351 3.66247C3.08352 3.66246 3.08353 3.66245 3.08354 3.66244C3.08355 3.66243 3.08356 3.66242 3.08357 3.66241C3.08358 3.6624 3.08359 3.66239 3.0836 3.66238C3.08361 3.66237 3.08362 3.66236 3.08363 3.66235C3.08364 3.66234 3.08365 3.66233 3.08366 3.66232C3.08367 3.66231 3.08368 3.6623 3.08369 3.66229C3.0837 3.66228 3.08371 3.66227 3.08372 3.66226C3.08373 3.66225 3.08374 3.66224 3.08375 3.66223C3.08376 3.66222 3.08377 3.66221 3.08378 3.6622C3.08379 3.66219 3.0838 3.66218 3.08381 3.66217C3.08383 3.66216 3.08384 3.66215 3.08385 3.66214C3.08386 3.66213 3.08387 3.66212 3.08388 3.66211C3.08389 3.6621 3.0839 3.66209 3.08391 3.66208C3.08392 3.66207 3.08393 3.66206 3.08394 3.66205C3.08395 3.66204 3.08396 3.66203 3.08397 3.66202C3.08398 3.662 3.08399 3.66199 3.084 3.66198C3.08401 3.66197 3.08402 3.66196 3.08403 3.66195C3.08404 3.66194 3.08405 3.66193 3.08406 3.66192C3.08407 3.66191 3.08408 3.6619 3.08409 3.66189C3.0841 3.66188 3.08411 3.66187 3.08412 3.66186C3.08413 3.66185 3.08414 3.66184 3.08415 3.66183C3.08416 3.66182 3.08417 3.66181 3.08418 3.6618C3.08419 3.66179 3.0842 3.66178 3.08421 3.66177C3.08422 3.66176 3.08423 3.66175 3.08424 3.66174C3.08425 3.66173 3.08426 3.66172 3.08427 3.66171C3.08428 3.6617 3.08429 3.66169 3.0843 3.66168C3.08431 3.66167 3.08432 3.66166 3.08433 3.66165C3.08434 3.66164 3.08435 3.66163 3.08436 3.66162C3.08437 3.66161 3.08439 3.6616 3.0844 3.66159C3.08441 3.66158 3.08442 3.66157 3.08443 3.66156C3.08444 3.66155 3.08445 3.66154 3.08446 3.66153C3.08447 3.66152 3.08448 3.66151 3.08449 3.6615C3.0845 3.66149 3.08451 3.66148 3.08452 3.66147C3.08453 3.66146 3.08454 3.66144 3.08455 3.66143C3.08456 3.66142 3.08457 3.66141 3.08458 3.6614C3.08459 3.66139 3.0846 3.66138 3.08461 3.66137C3.08462 3.66136 3.08463 3.66135 3.08464 3.66134C3.08465 3.66133 3.08466 3.66132 3.08467 3.66131C3.08468 3.6613 3.08469 3.66129 3.0847 3.66128C3.08471 3.66127 3.08472 3.66126 3.08473 3.66125C3.08474 3.66124 3.08475 3.66123 3.08476 3.66122C3.08477 3.66121 3.08478 3.6612 3.08479 3.66119C3.0848 3.66118 3.08481 3.66117 3.08482 3.66116C3.08483 3.66115 3.08484 3.66114 3.08485 3.66113C3.08486 3.66112 3.08487 3.66111 3.08488 3.6611C3.08489 3.66109 3.0849 3.66108 3.08491 3.66107C3.08492 3.66106 3.08493 3.66105 3.08495 3.66104C3.08496 3.66103 3.08497 3.66102 3.08498 3.66101C3.08499 3.661 3.085 3.66099 3.08501 3.66098C3.08502 3.66097 3.08503 3.66096 3.08504 3.66095C3.08505 3.66094 3.08506 3.66093 3.08507 3.66092C3.08508 3.66091 3.08509 3.6609 3.0851 3.66088C3.08511 3.66087 3.08512 3.66086 3.08513 3.66085C3.08514 3.66084 3.08515 3.66083 3.08516 3.66082C3.08517 3.66081 3.08518 3.6608 3.08519 3.66079C3.0852 3.66078 3.08521 3.66077 3.08522 3.66076C3.08523 3.66075 3.08524 3.66074 3.08525 3.66073C3.08526 3.66072 3.08527 3.66071 3.08528 3.6607C3.08529 3.66069 3.0853 3.66068 3.08531 3.66067C3.08532 3.66066 3.08533 3.66065 3.08534 3.66064C3.08535 3.66063 3.08536 3.66062 3.08537 3.66061C3.08538 3.6606 3.08539 3.66059 3.0854 3.66058C3.08541 3.66057 3.08542 3.66056 3.08543 3.66055C3.08544 3.66054 3.08545 3.66053 3.08546 3.66052C3.08547 3.66051 3.08548 3.6605 3.0855 3.66049C3.08551 3.66048 3.08552 3.66047 3.08553 3.66046C3.08554 3.66045 3.08555 3.66044 3.08556 3.66043C3.08557 3.66042 3.08558 3.66041 3.08559 3.6604C3.0856 3.66039 3.08561 3.66038 3.08562 3.66037C3.08563 3.66036 3.08564 3.66035 3.08565 3.66034C3.08566 3.66033 3.08567 3.66031 3.08568 3.6603C3.08569 3.66029 3.0857 3.66028 3.08571 3.66027C3.08572 3.66026 3.08573 3.66025 3.08574 3.66024C3.08575 3.66023 3.08576 3.66022 3.08577 3.66021C3.08578 3.6602 3.08579 3.66019 3.0858 3.66018C3.08581 3.66017 3.08582 3.66016 3.08583 3.66015C3.08584 3.66014 3.08585 3.66013 3.08586 3.66012C3.08587 3.66011 3.08588 3.6601 3.08589 3.66009C3.0859 3.66008 3.08591 3.66007 3.08592 3.66006C3.08593 3.66005 3.08594 3.66004 3.08595 3.66003C3.08596 3.66002 3.08597 3.66001 3.08598 3.66C3.08599 3.65999 3.086 3.65998 3.08601 3.65997C3.08602 3.65996 3.08603 3.65995 3.08604 3.65994C3.08605 3.65993 3.08607 3.65992 3.08608 3.65991C3.08609 3.6599 3.0861 3.65989 3.08611 3.65988C3.08612 3.65987 3.08613 3.65986 3.08614 3.65985C3.08615 3.65984 3.08616 3.65983 3.08617 3.65982C3.08618 3.65981 3.08619 3.6598 3.0862 3.65979C3.08621 3.65978 3.08622 3.65977 3.08623 3.65975C3.08624 3.65974 3.08625 3.65973 3.08626 3.65972C3.08627 3.65971 3.08628 3.6597 3.08629 3.65969C3.0863 3.65968 3.08631 3.65967 3.08632 3.65966C3.08633 3.65965 3.08634 3.65964 3.08635 3.65963C3.08636 3.65962 3.08637 3.65961 3.08638 3.6596C3.08639 3.65959 3.0864 3.65958 3.08641 3.65957C3.08642 3.65956 3.08643 3.65955 3.08644 3.65954C3.08645 3.65953 3.08646 3.65952 3.08647 3.65951C3.08648 3.6595 3.08649 3.65949 3.0865 3.65948C3.08651 3.65947 3.08652 3.65946 3.08653 3.65945C3.08654 3.65944 3.08655 3.65943 3.08656 3.65942C3.08657 3.65941 3.08658 3.6594 3.08659 3.65939C3.0866 3.65938 3.08662 3.65937 3.08663 3.65936C3.08664 3.65935 3.08665 3.65934 3.08666 3.65933C3.08667 3.65932 3.08668 3.65931 3.08669 3.6593C3.0867 3.65929 3.08671 3.65928 3.08672 3.65927C3.08673 3.65926 3.08674 3.65925 3.08675 3.65924C3.08676 3.65923 3.08677 3.65922 3.08678 3.65921C3.08679 3.6592 3.0868 3.65918 3.08681 3.65917C3.08682 3.65916 3.08683 3.65915 3.08684 3.65914C3.08685 3.65913 3.08686 3.65912 3.08687 3.65911C3.08688 3.6591 3.08689 3.65909 3.0869 3.65908C3.08691 3.65907 3.08692 3.65906 3.08693 3.65905C3.08694 3.65904 3.08695 3.65903 3.08696 3.65902C3.08697 3.65901 3.08698 3.659 3.08699 3.65899C3.087 3.65898 3.08701 3.65897 3.08702 3.65896C3.08703 3.65895 3.08704 3.65894 3.08705 3.65893C3.08706 3.65892 3.08707 3.65891 3.08708 3.6589C3.08709 3.65889 3.0871 3.65888 3.08711 3.65887C3.08712 3.65886 3.08713 3.65885 3.08714 3.65884C3.08715 3.65883 3.08716 3.65882 3.08717 3.65881C3.08719 3.6588 3.0872 3.65879 3.08721 3.65878C3.08722 3.65877 3.08723 3.65876 3.08724 3.65875C3.08725 3.65874 3.08726 3.65873 3.08727 3.65872C3.08728 3.65871 3.08729 3.6587 3.0873 3.65869C3.08731 3.65868 3.08732 3.65867 3.08733 3.65866C3.08734 3.65865 3.08735 3.65864 3.08736 3.65863C3.08737 3.65861 3.08738 3.6586 3.08739 3.65859C3.0874 3.65858 3.08741 3.65857 3.08742 3.65856C3.08743 3.65855 3.08744 3.65854 3.08745 3.65853C3.08746 3.65852 3.08747 3.65851 3.08748 3.6585C3.08749 3.65849 3.0875 3.65848 3.08751 3.65847C3.08752 3.65846 3.08753 3.65845 3.08754 3.65844C3.08755 3.65843 3.08756 3.65842 3.08757 3.65841C3.08758 3.6584 3.08759 3.65839 3.0876 3.65838C3.08761 3.65837 3.08762 3.65836 3.08763 3.65835C3.08764 3.65834 3.08765 3.65833 3.08766 3.65832C3.08767 3.65831 3.08768 3.6583 3.08769 3.65829C3.0877 3.65828 3.08771 3.65827 3.08772 3.65826C3.08774 3.65825 3.08775 3.65824 3.08776 3.65823C3.08777 3.65822 3.08778 3.65821 3.08779 3.6582C3.0878 3.65819 3.08781 3.65818 3.08782 3.65817C3.08783 3.65816 3.08784 3.65815 3.08785 3.65814C3.08786 3.65813 3.08787 3.65812 3.08788 3.65811C3.08789 3.6581 3.0879 3.65809 3.08791 3.65808C3.08792 3.65807 3.08793 3.65805 3.08794 3.65804C3.08795 3.65803 3.08796 3.65802 3.08797 3.65801C3.08798 3.658 3.08799 3.65799 3.088 3.65798C3.08801 3.65797 3.08802 3.65796 3.08803 3.65795C3.08804 3.65794 3.08805 3.65793 3.08806 3.65792C3.08807 3.65791 3.08808 3.6579 3.08809 3.65789C3.0881 3.65788 3.08811 3.65787 3.08812 3.65786C3.08813 3.65785 3.08814 3.65784 3.08815 3.65783C3.08816 3.65782 3.08817 3.65781 3.08818 3.6578C3.08819 3.65779 3.0882 3.65778 3.08821 3.65777C3.08822 3.65776 3.08823 3.65775 3.08824 3.65774C3.08825 3.65773 3.08826 3.65772 3.08827 3.65771C3.08828 3.6577 3.08829 3.65769 3.08831 3.65768C3.08832 3.65767 3.08833 3.65766 3.08834 3.65765C3.08835 3.65764 3.08836 3.65763 3.08837 3.65762C3.08838 3.65761 3.08839 3.6576 3.0884 3.65759C3.08841 3.65758 3.08842 3.65757 3.08843 3.65756C3.08844 3.65755 3.08845 3.65754 3.08846 3.65753C3.08847 3.65752 3.08848 3.65751 3.08849 3.65749C3.0885 3.65748 3.08851 3.65747 3.08852 3.65746C3.08853 3.65745 3.08854 3.65744 3.08855 3.65743C3.08856 3.65742 3.08857 3.65741 3.08858 3.6574C3.08859 3.65739 3.0886 3.65738 3.08861 3.65737C3.08862 3.65736 3.08863 3.65735 3.08864 3.65734C3.08865 3.65733 3.08866 3.65732 3.08867 3.65731C3.08868 3.6573 3.08869 3.65729 3.0887 3.65728C3.08871 3.65727 3.08872 3.65726 3.08873 3.65725C3.08874 3.65724 3.08875 3.65723 3.08876 3.65722C3.08877 3.65721 3.08878 3.6572 3.08879 3.65719C3.0888 3.65718 3.08881 3.65717 3.08882 3.65716C3.08883 3.65715 3.08884 3.65714 3.08886 3.65713C3.08887 3.65712 3.08888 3.65711 3.08889 3.6571C3.0889 3.65709 3.08891 3.65708 3.08892 3.65707C3.08893 3.65706 3.08894 3.65705 3.08895 3.65704C3.08896 3.65703 3.08897 3.65702 3.08898 3.65701C3.08899 3.657 3.089 3.65699 3.08901 3.65698C3.08902 3.65697 3.08903 3.65696 3.08904 3.65695C3.08905 3.65694 3.08906 3.65692 3.08907 3.65691C3.08908 3.6569 3.08909 3.65689 3.0891 3.65688C3.08911 3.65687 3.08912 3.65686 3.08913 3.65685C3.08914 3.65684 3.08915 3.65683 3.08916 3.65682C3.08917 3.65681 3.08918 3.6568 3.08919 3.65679C3.0892 3.65678 3.08921 3.65677 3.08922 3.65676C3.08923 3.65675 3.08924 3.65674 3.08925 3.65673C3.08926 3.65672 3.08927 3.65671 3.08928 3.6567C3.08929 3.65669 3.0893 3.65668 3.08931 3.65667C3.08932 3.65666 3.08933 3.65665 3.08934 3.65664C3.08935 3.65663 3.08936 3.65662 3.08937 3.65661C3.08938 3.6566 3.08939 3.65659 3.0894 3.65658C3.08942 3.65657 3.08943 3.65656 3.08944 3.65655C3.08945 3.65654 3.08946 3.65653 3.08947 3.65652C3.08948 3.65651 3.08949 3.6565 3.0895 3.65649C3.08951 3.65648 3.08952 3.65647 3.08953 3.65646C3.08954 3.65645 3.08955 3.65644 3.08956 3.65643C3.08957 3.65642 3.08958 3.65641 3.08959 3.6564C3.0896 3.65639 3.08961 3.65638 3.08962 3.65637C3.08963 3.65635 3.08964 3.65634 3.08965 3.65633C3.08966 3.65632 3.08967 3.65631 3.08968 3.6563C3.08969 3.65629 3.0897 3.65628 3.08971 3.65627C3.08972 3.65626 3.08973 3.65625 3.08974 3.65624C3.08975 3.65623 3.08976 3.65622 3.08977 3.65621C3.08978 3.6562 3.08979 3.65619 3.0898 3.65618C3.08981 3.65617 3.08982 3.65616 3.08983 3.65615C3.08984 3.65614 3.08985 3.65613 3.08986 3.65612C3.08987 3.65611 3.08988 3.6561 3.08989 3.65609C3.0899 3.65608 3.08991 3.65607 3.08992 3.65606C3.08993 3.65605 3.08994 3.65604 3.08995 3.65603C3.08996 3.65602 3.08998 3.65601 3.08999 3.656C3.09 3.65599 3.09001 3.65598 3.09002 3.65597L2.8072 3.3731C2.80719 3.37311 2.80718 3.37312 2.80717 3.37313C2.80716 3.37314 2.80715 3.37315 2.80714 3.37316C2.80713 3.37317 2.80712 3.37318 2.80711 3.37319C2.8071 3.3732 2.80709 3.37321 2.80708 3.37322C2.80707 3.37323 2.80706 3.37324 2.80705 3.37325C2.80704 3.37326 2.80702 3.37327 2.80701 3.37328C2.807 3.37329 2.80699 3.3733 2.80698 3.37331C2.80697 3.37332 2.80696 3.37333 2.80695 3.37334C2.80694 3.37335 2.80693 3.37337 2.80692 3.37338C2.80691 3.37339 2.8069 3.3734 2.80689 3.37341C2.80688 3.37342 2.80687 3.37343 2.80686 3.37344C2.80685 3.37345 2.80684 3.37346 2.80683 3.37347C2.80682 3.37348 2.80681 3.37349 2.8068 3.3735C2.80679 3.37351 2.80678 3.37352 2.80677 3.37353C2.80676 3.37354 2.80675 3.37355 2.80674 3.37356C2.80673 3.37357 2.80672 3.37358 2.80671 3.37359C2.8067 3.3736 2.80669 3.37361 2.80668 3.37362C2.80667 3.37363 2.80666 3.37364 2.80665 3.37365C2.80664 3.37366 2.80663 3.37367 2.80662 3.37368C2.80661 3.37369 2.8066 3.3737 2.80659 3.37371C2.80658 3.37372 2.80657 3.37373 2.80656 3.37374C2.80655 3.37375 2.80654 3.37376 2.80653 3.37377C2.80652 3.37378 2.80651 3.37379 2.8065 3.3738C2.80649 3.37381 2.80648 3.37382 2.80646 3.37383C2.80645 3.37384 2.80644 3.37385 2.80643 3.37386C2.80642 3.37387 2.80641 3.37388 2.8064 3.37389C2.80639 3.3739 2.80638 3.37391 2.80637 3.37393C2.80636 3.37394 2.80635 3.37395 2.80634 3.37396C2.80633 3.37397 2.80632 3.37398 2.80631 3.37399C2.8063 3.374 2.80629 3.37401 2.80628 3.37402C2.80627 3.37403 2.80626 3.37404 2.80625 3.37405C2.80624 3.37406 2.80623 3.37407 2.80622 3.37408C2.80621 3.37409 2.8062 3.3741 2.80619 3.37411C2.80618 3.37412 2.80617 3.37413 2.80616 3.37414C2.80615 3.37415 2.80614 3.37416 2.80613 3.37417C2.80612 3.37418 2.80611 3.37419 2.8061 3.3742C2.80609 3.37421 2.80608 3.37422 2.80607 3.37423C2.80606 3.37424 2.80605 3.37425 2.80604 3.37426C2.80603 3.37427 2.80602 3.37428 2.80601 3.37429C2.806 3.3743 2.80599 3.37431 2.80598 3.37432C2.80597 3.37433 2.80596 3.37434 2.80595 3.37435C2.80594 3.37436 2.80593 3.37437 2.80592 3.37438C2.8059 3.37439 2.80589 3.3744 2.80588 3.37441C2.80587 3.37442 2.80586 3.37443 2.80585 3.37444C2.80584 3.37445 2.80583 3.37446 2.80582 3.37447C2.80581 3.37449 2.8058 3.3745 2.80579 3.37451C2.80578 3.37452 2.80577 3.37453 2.80576 3.37454C2.80575 3.37455 2.80574 3.37456 2.80573 3.37457C2.80572 3.37458 2.80571 3.37459 2.8057 3.3746C2.80569 3.37461 2.80568 3.37462 2.80567 3.37463C2.80566 3.37464 2.80565 3.37465 2.80564 3.37466C2.80563 3.37467 2.80562 3.37468 2.80561 3.37469C2.8056 3.3747 2.80559 3.37471 2.80558 3.37472C2.80557 3.37473 2.80556 3.37474 2.80555 3.37475C2.80554 3.37476 2.80553 3.37477 2.80552 3.37478C2.80551 3.37479 2.8055 3.3748 2.80549 3.37481C2.80548 3.37482 2.80547 3.37483 2.80546 3.37484C2.80545 3.37485 2.80544 3.37486 2.80543 3.37487C2.80542 3.37488 2.80541 3.37489 2.8054 3.3749C2.80539 3.37491 2.80538 3.37492 2.80537 3.37493C2.80536 3.37494 2.80534 3.37495 2.80533 3.37496C2.80532 3.37497 2.80531 3.37498 2.8053 3.37499C2.80529 3.375 2.80528 3.37501 2.80527 3.37502C2.80526 3.37503 2.80525 3.37504 2.80524 3.37506C2.80523 3.37507 2.80522 3.37508 2.80521 3.37509C2.8052 3.3751 2.80519 3.37511 2.80518 3.37512C2.80517 3.37513 2.80516 3.37514 2.80515 3.37515C2.80514 3.37516 2.80513 3.37517 2.80512 3.37518C2.80511 3.37519 2.8051 3.3752 2.80509 3.37521C2.80508 3.37522 2.80507 3.37523 2.80506 3.37524C2.80505 3.37525 2.80504 3.37526 2.80503 3.37527C2.80502 3.37528 2.80501 3.37529 2.805 3.3753C2.80499 3.37531 2.80498 3.37532 2.80497 3.37533C2.80496 3.37534 2.80495 3.37535 2.80494 3.37536C2.80493 3.37537 2.80492 3.37538 2.80491 3.37539C2.8049 3.3754 2.80489 3.37541 2.80488 3.37542C2.80487 3.37543 2.80486 3.37544 2.80485 3.37545C2.80484 3.37546 2.80483 3.37547 2.80482 3.37548C2.80481 3.37549 2.8048 3.3755 2.80478 3.37551C2.80477 3.37552 2.80476 3.37553 2.80475 3.37554C2.80474 3.37555 2.80473 3.37556 2.80472 3.37557C2.80471 3.37558 2.8047 3.37559 2.80469 3.3756C2.80468 3.37562 2.80467 3.37563 2.80466 3.37564C2.80465 3.37565 2.80464 3.37566 2.80463 3.37567C2.80462 3.37568 2.80461 3.37569 2.8046 3.3757C2.80459 3.37571 2.80458 3.37572 2.80457 3.37573C2.80456 3.37574 2.80455 3.37575 2.80454 3.37576C2.80453 3.37577 2.80452 3.37578 2.80451 3.37579C2.8045 3.3758 2.80449 3.37581 2.80448 3.37582C2.80447 3.37583 2.80446 3.37584 2.80445 3.37585C2.80444 3.37586 2.80443 3.37587 2.80442 3.37588C2.80441 3.37589 2.8044 3.3759 2.80439 3.37591C2.80438 3.37592 2.80437 3.37593 2.80436 3.37594C2.80435 3.37595 2.80434 3.37596 2.80433 3.37597C2.80432 3.37598 2.80431 3.37599 2.8043 3.376C2.80429 3.37601 2.80428 3.37602 2.80427 3.37603C2.80426 3.37604 2.80425 3.37605 2.80424 3.37606C2.80422 3.37607 2.80421 3.37608 2.8042 3.37609C2.80419 3.3761 2.80418 3.37611 2.80417 3.37612C2.80416 3.37613 2.80415 3.37614 2.80414 3.37615C2.80413 3.37616 2.80412 3.37618 2.80411 3.37619C2.8041 3.3762 2.80409 3.37621 2.80408 3.37622C2.80407 3.37623 2.80406 3.37624 2.80405 3.37625C2.80404 3.37626 2.80403 3.37627 2.80402 3.37628C2.80401 3.37629 2.804 3.3763 2.80399 3.37631C2.80398 3.37632 2.80397 3.37633 2.80396 3.37634C2.80395 3.37635 2.80394 3.37636 2.80393 3.37637C2.80392 3.37638 2.80391 3.37639 2.8039 3.3764C2.80389 3.37641 2.80388 3.37642 2.80387 3.37643C2.80386 3.37644 2.80385 3.37645 2.80384 3.37646C2.80383 3.37647 2.80382 3.37648 2.80381 3.37649C2.8038 3.3765 2.80379 3.37651 2.80378 3.37652C2.80377 3.37653 2.80376 3.37654 2.80375 3.37655C2.80374 3.37656 2.80373 3.37657 2.80372 3.37658C2.80371 3.37659 2.8037 3.3766 2.80369 3.37661C2.80367 3.37662 2.80366 3.37663 2.80365 3.37664C2.80364 3.37665 2.80363 3.37666 2.80362 3.37667C2.80361 3.37668 2.8036 3.37669 2.80359 3.3767C2.80358 3.37671 2.80357 3.37672 2.80356 3.37673C2.80355 3.37675 2.80354 3.37676 2.80353 3.37677C2.80352 3.37678 2.80351 3.37679 2.8035 3.3768C2.80349 3.37681 2.80348 3.37682 2.80347 3.37683C2.80346 3.37684 2.80345 3.37685 2.80344 3.37686C2.80343 3.37687 2.80342 3.37688 2.80341 3.37689C2.8034 3.3769 2.80339 3.37691 2.80338 3.37692C2.80337 3.37693 2.80336 3.37694 2.80335 3.37695C2.80334 3.37696 2.80333 3.37697 2.80332 3.37698C2.80331 3.37699 2.8033 3.377 2.80329 3.37701C2.80328 3.37702 2.80327 3.37703 2.80326 3.37704C2.80325 3.37705 2.80324 3.37706 2.80323 3.37707C2.80322 3.37708 2.80321 3.37709 2.8032 3.3771C2.80319 3.37711 2.80318 3.37712 2.80317 3.37713C2.80316 3.37714 2.80315 3.37715 2.80314 3.37716C2.80313 3.37717 2.80312 3.37718 2.8031 3.37719C2.80309 3.3772 2.80308 3.37721 2.80307 3.37722C2.80306 3.37723 2.80305 3.37724 2.80304 3.37725C2.80303 3.37726 2.80302 3.37727 2.80301 3.37728C2.803 3.37729 2.80299 3.3773 2.80298 3.37732C2.80297 3.37733 2.80296 3.37734 2.80295 3.37735C2.80294 3.37736 2.80293 3.37737 2.80292 3.37738C2.80291 3.37739 2.8029 3.3774 2.80289 3.37741C2.80288 3.37742 2.80287 3.37743 2.80286 3.37744C2.80285 3.37745 2.80284 3.37746 2.80283 3.37747C2.80282 3.37748 2.80281 3.37749 2.8028 3.3775C2.80279 3.37751 2.80278 3.37752 2.80277 3.37753C2.80276 3.37754 2.80275 3.37755 2.80274 3.37756C2.80273 3.37757 2.80272 3.37758 2.80271 3.37759C2.8027 3.3776 2.80269 3.37761 2.80268 3.37762C2.80267 3.37763 2.80266 3.37764 2.80265 3.37765C2.80264 3.37766 2.80263 3.37767 2.80262 3.37768C2.80261 3.37769 2.8026 3.3777 2.80259 3.37771C2.80258 3.37772 2.80257 3.37773 2.80255 3.37774C2.80254 3.37775 2.80253 3.37776 2.80252 3.37777C2.80251 3.37778 2.8025 3.37779 2.80249 3.3778C2.80248 3.37781 2.80247 3.37782 2.80246 3.37783C2.80245 3.37784 2.80244 3.37785 2.80243 3.37786C2.80242 3.37788 2.80241 3.37789 2.8024 3.3779C2.80239 3.37791 2.80238 3.37792 2.80237 3.37793C2.80236 3.37794 2.80235 3.37795 2.80234 3.37796C2.80233 3.37797 2.80232 3.37798 2.80231 3.37799C2.8023 3.378 2.80229 3.37801 2.80228 3.37802C2.80227 3.37803 2.80226 3.37804 2.80225 3.37805C2.80224 3.37806 2.80223 3.37807 2.80222 3.37808C2.80221 3.37809 2.8022 3.3781 2.80219 3.37811C2.80218 3.37812 2.80217 3.37813 2.80216 3.37814C2.80215 3.37815 2.80214 3.37816 2.80213 3.37817C2.80212 3.37818 2.80211 3.37819 2.8021 3.3782C2.80209 3.37821 2.80208 3.37822 2.80207 3.37823C2.80206 3.37824 2.80205 3.37825 2.80204 3.37826C2.80203 3.37827 2.80202 3.37828 2.80201 3.37829C2.802 3.3783 2.80198 3.37831 2.80197 3.37832C2.80196 3.37833 2.80195 3.37834 2.80194 3.37835C2.80193 3.37836 2.80192 3.37837 2.80191 3.37838C2.8019 3.37839 2.80189 3.3784 2.80188 3.37841C2.80187 3.37842 2.80186 3.37843 2.80185 3.37845C2.80184 3.37846 2.80183 3.37847 2.80182 3.37848C2.80181 3.37849 2.8018 3.3785 2.80179 3.37851C2.80178 3.37852 2.80177 3.37853 2.80176 3.37854C2.80175 3.37855 2.80174 3.37856 2.80173 3.37857C2.80172 3.37858 2.80171 3.37859 2.8017 3.3786C2.80169 3.37861 2.80168 3.37862 2.80167 3.37863C2.80166 3.37864 2.80165 3.37865 2.80164 3.37866C2.80163 3.37867 2.80162 3.37868 2.80161 3.37869C2.8016 3.3787 2.80159 3.37871 2.80158 3.37872C2.80157 3.37873 2.80156 3.37874 2.80155 3.37875C2.80154 3.37876 2.80153 3.37877 2.80152 3.37878C2.80151 3.37879 2.8015 3.3788 2.80149 3.37881C2.80148 3.37882 2.80147 3.37883 2.80146 3.37884C2.80145 3.37885 2.80143 3.37886 2.80142 3.37887C2.80141 3.37888 2.8014 3.37889 2.80139 3.3789C2.80138 3.37891 2.80137 3.37892 2.80136 3.37893C2.80135 3.37894 2.80134 3.37895 2.80133 3.37896C2.80132 3.37897 2.80131 3.37898 2.8013 3.37899C2.80129 3.37901 2.80128 3.37902 2.80127 3.37903C2.80126 3.37904 2.80125 3.37905 2.80124 3.37906C2.80123 3.37907 2.80122 3.37908 2.80121 3.37909C2.8012 3.3791 2.80119 3.37911 2.80118 3.37912C2.80117 3.37913 2.80116 3.37914 2.80115 3.37915C2.80114 3.37916 2.80113 3.37917 2.80112 3.37918C2.80111 3.37919 2.8011 3.3792 2.80109 3.37921C2.80108 3.37922 2.80107 3.37923 2.80106 3.37924C2.80105 3.37925 2.80104 3.37926 2.80103 3.37927C2.80102 3.37928 2.80101 3.37929 2.801 3.3793C2.80099 3.37931 2.80098 3.37932 2.80097 3.37933C2.80096 3.37934 2.80095 3.37935 2.80094 3.37936C2.80093 3.37937 2.80092 3.37938 2.80091 3.37939C2.8009 3.3794 2.80089 3.37941 2.80088 3.37942C2.80086 3.37943 2.80085 3.37944 2.80084 3.37945C2.80083 3.37946 2.80082 3.37947 2.80081 3.37948C2.8008 3.37949 2.80079 3.3795 2.80078 3.37951C2.80077 3.37952 2.80076 3.37953 2.80075 3.37954C2.80074 3.37955 2.80073 3.37957 2.80072 3.37958C2.80071 3.37959 2.8007 3.3796 2.80069 3.37961C2.80068 3.37962 2.80067 3.37963 2.80066 3.37964C2.80065 3.37965 2.80064 3.37966 2.80063 3.37967C2.80062 3.37968 2.80061 3.37969 2.8006 3.3797C2.80059 3.37971 2.80058 3.37972 2.80057 3.37973C2.80056 3.37974 2.80055 3.37975 2.80054 3.37976C2.80053 3.37977 2.80052 3.37978 2.80051 3.37979C2.8005 3.3798 2.80049 3.37981 2.80048 3.37982C2.80047 3.37983 2.80046 3.37984 2.80045 3.37985C2.80044 3.37986 2.80043 3.37987 2.80042 3.37988C2.80041 3.37989 2.8004 3.3799 2.80039 3.37991C2.80038 3.37992 2.80037 3.37993 2.80036 3.37994C2.80035 3.37995 2.80034 3.37996 2.80033 3.37997C2.80031 3.37998 2.8003 3.37999 2.80029 3.38C2.80028 3.38001 2.80027 3.38002 2.80026 3.38003C2.80025 3.38004 2.80024 3.38005 2.80023 3.38006C2.80022 3.38007 2.80021 3.38008 2.8002 3.38009C2.80019 3.3801 2.80018 3.38011 2.80017 3.38012C2.80016 3.38014 2.80015 3.38015 2.80014 3.38016C2.80013 3.38017 2.80012 3.38018 2.80011 3.38019C2.8001 3.3802 2.80009 3.38021 2.80008 3.38022C2.80007 3.38023 2.80006 3.38024 2.80005 3.38025C2.80004 3.38026 2.80003 3.38027 2.80002 3.38028C2.80001 3.38029 2.8 3.3803 2.79999 3.38031C2.79998 3.38032 2.79997 3.38033 2.79996 3.38034C2.79995 3.38035 2.79994 3.38036 2.79993 3.38037C2.79992 3.38038 2.79991 3.38039 2.7999 3.3804C2.79989 3.38041 2.79988 3.38042 2.79987 3.38043C2.79986 3.38044 2.79985 3.38045 2.79984 3.38046C2.79983 3.38047 2.79982 3.38048 2.79981 3.38049C2.7998 3.3805 2.79979 3.38051 2.79978 3.38052C2.79977 3.38053 2.79975 3.38054 2.79974 3.38055C2.79973 3.38056 2.79972 3.38057 2.79971 3.38058C2.7997 3.38059 2.79969 3.3806 2.79968 3.38061C2.79967 3.38062 2.79966 3.38063 2.79965 3.38064C2.79964 3.38065 2.79963 3.38066 2.79962 3.38067C2.79961 3.38068 2.7996 3.38069 2.79959 3.38071C2.79958 3.38072 2.79957 3.38073 2.79956 3.38074C2.79955 3.38075 2.79954 3.38076 2.79953 3.38077C2.79952 3.38078 2.79951 3.38079 2.7995 3.3808C2.79949 3.38081 2.79948 3.38082 2.79947 3.38083C2.79946 3.38084 2.79945 3.38085 2.79944 3.38086C2.79943 3.38087 2.79942 3.38088 2.79941 3.38089C2.7994 3.3809 2.79939 3.38091 2.79938 3.38092C2.79937 3.38093 2.79936 3.38094 2.79935 3.38095C2.79934 3.38096 2.79933 3.38097 2.79932 3.38098C2.79931 3.38099 2.7993 3.381 2.79929 3.38101C2.79928 3.38102 2.79927 3.38103 2.79926 3.38104C2.79925 3.38105 2.79924 3.38106 2.79923 3.38107C2.79922 3.38108 2.79921 3.38109 2.79919 3.3811C2.79918 3.38111 2.79917 3.38112 2.79916 3.38113C2.79915 3.38114 2.79914 3.38115 2.79913 3.38116C2.79912 3.38117 2.79911 3.38118 2.7991 3.38119C2.79909 3.3812 2.79908 3.38121 2.79907 3.38122C2.79906 3.38123 2.79905 3.38124 2.79904 3.38125C2.79903 3.38127 2.79902 3.38128 2.79901 3.38129C2.799 3.3813 2.79899 3.38131 2.79898 3.38132C2.79897 3.38133 2.79896 3.38134 2.79895 3.38135C2.79894 3.38136 2.79893 3.38137 2.79892 3.38138C2.79891 3.38139 2.7989 3.3814 2.79889 3.38141C2.79888 3.38142 2.79887 3.38143 2.79886 3.38144C2.79885 3.38145 2.79884 3.38146 2.79883 3.38147C2.79882 3.38148 2.79881 3.38149 2.7988 3.3815C2.79879 3.38151 2.79878 3.38152 2.79877 3.38153C2.79876 3.38154 2.79875 3.38155 2.79874 3.38156C2.79873 3.38157 2.79872 3.38158 2.79871 3.38159C2.7987 3.3816 2.79869 3.38161 2.79868 3.38162C2.79867 3.38163 2.79866 3.38164 2.79865 3.38165C2.79863 3.38166 2.79862 3.38167 2.79861 3.38168C2.7986 3.38169 2.79859 3.3817 2.79858 3.38171C2.79857 3.38172 2.79856 3.38173 2.79855 3.38174C2.79854 3.38175 2.79853 3.38176 2.79852 3.38177C2.79851 3.38178 2.7985 3.38179 2.79849 3.3818C2.79848 3.38181 2.79847 3.38183 2.79846 3.38184C2.79845 3.38185 2.79844 3.38186 2.79843 3.38187C2.79842 3.38188 2.79841 3.38189 2.7984 3.3819C2.79839 3.38191 2.79838 3.38192 2.79837 3.38193C2.79836 3.38194 2.79835 3.38195 2.79834 3.38196C2.79833 3.38197 2.79832 3.38198 2.79831 3.38199C2.7983 3.382 2.79829 3.38201 2.79828 3.38202C2.79827 3.38203 2.79826 3.38204 2.79825 3.38205C2.79824 3.38206 2.79823 3.38207 2.79822 3.38208C2.79821 3.38209 2.7982 3.3821 2.79819 3.38211C2.79818 3.38212 2.79817 3.38213 2.79816 3.38214C2.79815 3.38215 2.79814 3.38216 2.79813 3.38217C2.79812 3.38218 2.79811 3.38219 2.7981 3.3822C2.79808 3.38221 2.79807 3.38222 2.79806 3.38223C2.79805 3.38224 2.79804 3.38225 2.79803 3.38226C2.79802 3.38227 2.79801 3.38228 2.798 3.38229C2.79799 3.3823 2.79798 3.38231 2.79797 3.38232C2.79796 3.38233 2.79795 3.38234 2.79794 3.38235C2.79793 3.38236 2.79792 3.38237 2.79791 3.38238C2.7979 3.3824 2.79789 3.38241 2.79788 3.38242C2.79787 3.38243 2.79786 3.38244 2.79785 3.38245C2.79784 3.38246 2.79783 3.38247 2.79782 3.38248C2.79781 3.38249 2.7978 3.3825 2.79779 3.38251C2.79778 3.38252 2.79777 3.38253 2.79776 3.38254C2.79775 3.38255 2.79774 3.38256 2.79773 3.38257C2.79772 3.38258 2.79771 3.38259 2.7977 3.3826C2.79769 3.38261 2.79768 3.38262 2.79767 3.38263C2.79766 3.38264 2.79765 3.38265 2.79764 3.38266C2.79763 3.38267 2.79762 3.38268 2.79761 3.38269C2.7976 3.3827 2.79759 3.38271 2.79758 3.38272C2.79757 3.38273 2.79756 3.38274 2.79755 3.38275C2.79754 3.38276 2.79753 3.38277 2.79751 3.38278C2.7975 3.38279 2.79749 3.3828 2.79748 3.38281C2.79747 3.38282 2.79746 3.38283 2.79745 3.38284C2.79744 3.38285 2.79743 3.38286 2.79742 3.38287C2.79741 3.38288 2.7974 3.38289 2.79739 3.3829C2.79738 3.38291 2.79737 3.38292 2.79736 3.38293C2.79735 3.38294 2.79734 3.38296 2.79733 3.38297C2.79732 3.38298 2.79731 3.38299 2.7973 3.383C2.79729 3.38301 2.79728 3.38302 2.79727 3.38303C2.79726 3.38304 2.79725 3.38305 2.79724 3.38306C2.79723 3.38307 2.79722 3.38308 2.79721 3.38309C2.7972 3.3831 2.79719 3.38311 2.79718 3.38312C2.79717 3.38313 2.79716 3.38314 2.79715 3.38315C2.79714 3.38316 2.79713 3.38317 2.79712 3.38318C2.79711 3.38319 2.7971 3.3832 2.79709 3.38321C2.79708 3.38322 2.79707 3.38323 2.79706 3.38324C2.79705 3.38325 2.79704 3.38326 2.79703 3.38327C2.79702 3.38328 2.79701 3.38329 2.797 3.3833C2.79699 3.38331 2.79698 3.38332 2.79696 3.38333C2.79695 3.38334 2.79694 3.38335 2.79693 3.38336C2.79692 3.38337 2.79691 3.38338 2.7969 3.38339C2.79689 3.3834 2.79688 3.38341 2.79687 3.38342C2.79686 3.38343 2.79685 3.38344 2.79684 3.38345C2.79683 3.38346 2.79682 3.38347 2.79681 3.38348C2.7968 3.38349 2.79679 3.3835 2.79678 3.38352C2.79677 3.38353 2.79676 3.38354 2.79675 3.38355C2.79674 3.38356 2.79673 3.38357 2.79672 3.38358C2.79671 3.38359 2.7967 3.3836 2.79669 3.38361C2.79668 3.38362 2.79667 3.38363 2.79666 3.38364C2.79665 3.38365 2.79664 3.38366 2.79663 3.38367C2.79662 3.38368 2.79661 3.38369 2.7966 3.3837C2.79659 3.38371 2.79658 3.38372 2.79657 3.38373C2.79656 3.38374 2.79655 3.38375 2.79654 3.38376C2.79653 3.38377 2.79652 3.38378 2.79651 3.38379C2.7965 3.3838 2.79649 3.38381 2.79648 3.38382C2.79647 3.38383 2.79646 3.38384 2.79645 3.38385C2.79644 3.38386 2.79643 3.38387 2.79642 3.38388C2.79641 3.38389 2.79639 3.3839 2.79638 3.38391C2.79637 3.38392 2.79636 3.38393 2.79635 3.38394C2.79634 3.38395 2.79633 3.38396 2.79632 3.38397C2.79631 3.38398 2.7963 3.38399 2.79629 3.384C2.79628 3.38401 2.79627 3.38402 2.79626 3.38403C2.79625 3.38404 2.79624 3.38405 2.79623 3.38406C2.79622 3.38407 2.79621 3.38409 2.7962 3.3841C2.79619 3.38411 2.79618 3.38412 2.79617 3.38413C2.79616 3.38414 2.79615 3.38415 2.79614 3.38416C2.79613 3.38417 2.79612 3.38418 2.79611 3.38419C2.7961 3.3842 2.79609 3.38421 2.79608 3.38422C2.79607 3.38423 2.79606 3.38424 2.79605 3.38425C2.79604 3.38426 2.79603 3.38427 2.79602 3.38428C2.79601 3.38429 2.796 3.3843 2.79599 3.38431C2.79598 3.38432 2.79597 3.38433 2.79596 3.38434C2.79595 3.38435 2.79594 3.38436 2.79593 3.38437C2.79592 3.38438 2.79591 3.38439 2.7959 3.3844C2.79589 3.38441 2.79588 3.38442 2.79587 3.38443C2.79586 3.38444 2.79584 3.38445 2.79583 3.38446C2.79582 3.38447 2.79581 3.38448 2.7958 3.38449C2.79579 3.3845 2.79578 3.38451 2.79577 3.38452C2.79576 3.38453 2.79575 3.38454 2.79574 3.38455C2.79573 3.38456 2.79572 3.38457 2.79571 3.38458C2.7957 3.38459 2.79569 3.3846 2.79568 3.38461C2.79567 3.38462 2.79566 3.38463 2.79565 3.38464C2.79564 3.38466 2.79563 3.38467 2.79562 3.38468C2.79561 3.38469 2.7956 3.3847 2.79559 3.38471C2.79558 3.38472 2.79557 3.38473 2.79556 3.38474C2.79555 3.38475 2.79554 3.38476 2.79553 3.38477C2.79552 3.38478 2.79551 3.38479 2.7955 3.3848C2.79549 3.38481 2.79548 3.38482 2.79547 3.38483C2.79546 3.38484 2.79545 3.38485 2.79544 3.38486C2.79543 3.38487 2.79542 3.38488 2.79541 3.38489C2.7954 3.3849 2.79539 3.38491 2.79538 3.38492C2.79537 3.38493 2.79536 3.38494 2.79535 3.38495C2.79534 3.38496 2.79533 3.38497 2.79532 3.38498C2.79531 3.38499 2.7953 3.385 2.79529 3.38501C2.79527 3.38502 2.79526 3.38503 2.79525 3.38504C2.79524 3.38505 2.79523 3.38506 2.79522 3.38507C2.79521 3.38508 2.7952 3.38509 2.79519 3.3851C2.79518 3.38511 2.79517 3.38512 2.79516 3.38513C2.79515 3.38514 2.79514 3.38515 2.79513 3.38516C2.79512 3.38517 2.79511 3.38518 2.7951 3.38519C2.79509 3.3852 2.79508 3.38522 2.79507 3.38523C2.79506 3.38524 2.79505 3.38525 2.79504 3.38526C2.79503 3.38527 2.79502 3.38528 2.79501 3.38529C2.795 3.3853 2.79499 3.38531 2.79498 3.38532C2.79497 3.38533 2.79496 3.38534 2.79495 3.38535C2.79494 3.38536 2.79493 3.38537 2.79492 3.38538C2.79491 3.38539 2.7949 3.3854 2.79489 3.38541C2.79488 3.38542 2.79487 3.38543 2.79486 3.38544C2.79485 3.38545 2.79484 3.38546 2.79483 3.38547C2.79482 3.38548 2.79481 3.38549 2.7948 3.3855C2.79479 3.38551 2.79478 3.38552 2.79477 3.38553C2.79476 3.38554 2.79475 3.38555 2.79474 3.38556C2.79472 3.38557 2.79471 3.38558 2.7947 3.38559C2.79469 3.3856 2.79468 3.38561 2.79467 3.38562C2.79466 3.38563 2.79465 3.38564 2.79464 3.38565C2.79463 3.38566 2.79462 3.38567 2.79461 3.38568C2.7946 3.38569 2.79459 3.3857 2.79458 3.38571C2.79457 3.38572 2.79456 3.38573 2.79455 3.38574C2.79454 3.38575 2.79453 3.38576 2.79452 3.38577C2.79451 3.38579 2.7945 3.3858 2.79449 3.38581C2.79448 3.38582 2.79447 3.38583 2.79446 3.38584C2.79445 3.38585 2.79444 3.38586 2.79443 3.38587C2.79442 3.38588 2.79441 3.38589 2.7944 3.3859C2.79439 3.38591 2.79438 3.38592 2.79437 3.38593C2.79436 3.38594 2.79435 3.38595 2.79434 3.38596C2.79433 3.38597 2.79432 3.38598 2.79431 3.38599C2.7943 3.386 2.79429 3.38601 2.79428 3.38602C2.79427 3.38603 2.79426 3.38604 2.79425 3.38605C2.79424 3.38606 2.79423 3.38607 2.79422 3.38608C2.79421 3.38609 2.7942 3.3861 2.79419 3.38611C2.79418 3.38612 2.79416 3.38613 2.79415 3.38614C2.79414 3.38615 2.79413 3.38616 2.79412 3.38617C2.79411 3.38618 2.7941 3.38619 2.79409 3.3862C2.79408 3.38621 2.79407 3.38622 2.79406 3.38623C2.79405 3.38624 2.79404 3.38625 2.79403 3.38626C2.79402 3.38627 2.79401 3.38628 2.794 3.38629C2.79399 3.3863 2.79398 3.38631 2.79397 3.38632C2.79396 3.38633 2.79395 3.38635 2.79394 3.38636C2.79393 3.38637 2.79392 3.38638 2.79391 3.38639C2.7939 3.3864 2.79389 3.38641 2.79388 3.38642C2.79387 3.38643 2.79386 3.38644 2.79385 3.38645C2.79384 3.38646 2.79383 3.38647 2.79382 3.38648C2.79381 3.38649 2.7938 3.3865 2.79379 3.38651C2.79378 3.38652 2.79377 3.38653 2.79376 3.38654C2.79375 3.38655 2.79374 3.38656 2.79373 3.38657C2.79372 3.38658 2.79371 3.38659 2.7937 3.3866C2.79369 3.38661 2.79368 3.38662 2.79367 3.38663C2.79366 3.38664 2.79365 3.38665 2.79364 3.38666C2.79363 3.38667 2.79362 3.38668 2.7936 3.38669C2.79359 3.3867 2.79358 3.38671 2.79357 3.38672C2.79356 3.38673 2.79355 3.38674 2.79354 3.38675C2.79353 3.38676 2.79352 3.38677 2.79351 3.38678C2.7935 3.38679 2.79349 3.3868 2.79348 3.38681C2.79347 3.38682 2.79346 3.38683 2.79345 3.38684C2.79344 3.38685 2.79343 3.38686 2.79342 3.38687C2.79341 3.38688 2.7934 3.38689 2.79339 3.38691C2.79338 3.38692 2.79337 3.38693 2.79336 3.38694C2.79335 3.38695 2.79334 3.38696 2.79333 3.38697C2.79332 3.38698 2.79331 3.38699 2.7933 3.387C2.79329 3.38701 2.79328 3.38702 2.79327 3.38703C2.79326 3.38704 2.79325 3.38705 2.79324 3.38706C2.79323 3.38707 2.79322 3.38708 2.79321 3.38709C2.7932 3.3871 2.79319 3.38711 2.79318 3.38712C2.79317 3.38713 2.79316 3.38714 2.79315 3.38715C2.79314 3.38716 2.79313 3.38717 2.79312 3.38718C2.79311 3.38719 2.7931 3.3872 2.79309 3.38721C2.79308 3.38722 2.79307 3.38723 2.79306 3.38724C2.79304 3.38725 2.79303 3.38726 2.79302 3.38727C2.79301 3.38728 2.793 3.38729 2.79299 3.3873C2.79298 3.38731 2.79297 3.38732 2.79296 3.38733C2.79295 3.38734 2.79294 3.38735 2.79293 3.38736C2.79292 3.38737 2.79291 3.38738 2.7929 3.38739C2.79289 3.3874 2.79288 3.38741 2.79287 3.38742C2.79286 3.38743 2.79285 3.38744 2.79284 3.38745C2.79283 3.38746 2.79282 3.38748 2.79281 3.38749C2.7928 3.3875 2.79279 3.38751 2.79278 3.38752C2.79277 3.38753 2.79276 3.38754 2.79275 3.38755C2.79274 3.38756 2.79273 3.38757 2.79272 3.38758C2.79271 3.38759 2.7927 3.3876 2.79269 3.38761C2.79268 3.38762 2.79267 3.38763 2.79266 3.38764C2.79265 3.38765 2.79264 3.38766 2.79263 3.38767C2.79262 3.38768 2.79261 3.38769 2.7926 3.3877C2.79259 3.38771 2.79258 3.38772 2.79257 3.38773C2.79256 3.38774 2.79255 3.38775 2.79254 3.38776C2.79253 3.38777 2.79252 3.38778 2.79251 3.38779C2.7925 3.3878 2.79248 3.38781 2.79247 3.38782C2.79246 3.38783 2.79245 3.38784 2.79244 3.38785C2.79243 3.38786 2.79242 3.38787 2.79241 3.38788C2.7924 3.38789 2.79239 3.3879 2.79238 3.38791C2.79237 3.38792 2.79236 3.38793 2.79235 3.38794C2.79234 3.38795 2.79233 3.38796 2.79232 3.38797C2.79231 3.38798 2.7923 3.38799 2.79229 3.388C2.79228 3.38801 2.79227 3.38802 2.79226 3.38803C2.79225 3.38805 2.79224 3.38806 2.79223 3.38807C2.79222 3.38808 2.79221 3.38809 2.7922 3.3881C2.79219 3.38811 2.79218 3.38812 2.79217 3.38813C2.79216 3.38814 2.79215 3.38815 2.79214 3.38816C2.79213 3.38817 2.79212 3.38818 2.79211 3.38819C2.7921 3.3882 2.79209 3.38821 2.79208 3.38822C2.79207 3.38823 2.79206 3.38824 2.79205 3.38825C2.79204 3.38826 2.79203 3.38827 2.79202 3.38828C2.79201 3.38829 2.792 3.3883 2.79199 3.38831C2.79198 3.38832 2.79197 3.38833 2.79196 3.38834C2.79195 3.38835 2.79194 3.38836 2.79192 3.38837C2.79191 3.38838 2.7919 3.38839 2.79189 3.3884C2.79188 3.38841 2.79187 3.38842 2.79186 3.38843C2.79185 3.38844 2.79184 3.38845 2.79183 3.38846C2.79182 3.38847 2.79181 3.38848 2.7918 3.38849C2.79179 3.3885 2.79178 3.38851 2.79177 3.38852C2.79176 3.38853 2.79175 3.38854 2.79174 3.38855C2.79173 3.38856 2.79172 3.38857 2.79171 3.38858C2.7917 3.38859 2.79169 3.38861 2.79168 3.38862C2.79167 3.38863 2.79166 3.38864 2.79165 3.38865C2.79164 3.38866 2.79163 3.38867 2.79162 3.38868C2.79161 3.38869 2.7916 3.3887 2.79159 3.38871C2.79158 3.38872 2.79157 3.38873 2.79156 3.38874L3.07438 3.6716ZM2.88943 3.32349L2.88412 3.32513L3.00248 3.70722L3.00778 3.70558L2.88943 3.32349Z" fill="black" mask="url(#path-1-outside-1_1_36797)"/>
</svg>
